<?xml version="1.0" encoding="utf-8"?>
<svg xmlns="http://www.w3.org/2000/svg" xmlns:xlink="http://www.w3.org/1999/xlink" width="600" height="400" viewBox="0 0 2400 1600">
<defs>
  <clipPath id="clip030">
    <rect x="0" y="0" width="2400" height="1600"/>
  </clipPath>
</defs>
<path clip-path="url(#clip030)" d="M0 1600 L2400 1600 L2400 0 L0 0  Z" fill="#ffffff" fill-rule="evenodd" fill-opacity="1"/>
<defs>
  <clipPath id="clip031">
    <rect x="480" y="0" width="1681" height="1600"/>
  </clipPath>
</defs>
<path clip-path="url(#clip030)" d="M249.542 1423.18 L2352.76 1423.18 L2352.76 123.472 L249.542 123.472  Z" fill="#ffffff" fill-rule="evenodd" fill-opacity="1"/>
<defs>
  <clipPath id="clip032">
    <rect x="249" y="123" width="2104" height="1301"/>
  </clipPath>
</defs>
<polyline clip-path="url(#clip032)" style="stroke:#000000; stroke-linecap:round; stroke-linejoin:round; stroke-width:2; stroke-opacity:0.1; fill:none" points="309.067,1423.18 309.067,123.472 "/>
<polyline clip-path="url(#clip032)" style="stroke:#000000; stroke-linecap:round; stroke-linejoin:round; stroke-width:2; stroke-opacity:0.1; fill:none" points="805.108,1423.18 805.108,123.472 "/>
<polyline clip-path="url(#clip032)" style="stroke:#000000; stroke-linecap:round; stroke-linejoin:round; stroke-width:2; stroke-opacity:0.1; fill:none" points="1301.15,1423.18 1301.15,123.472 "/>
<polyline clip-path="url(#clip032)" style="stroke:#000000; stroke-linecap:round; stroke-linejoin:round; stroke-width:2; stroke-opacity:0.1; fill:none" points="1797.19,1423.18 1797.19,123.472 "/>
<polyline clip-path="url(#clip032)" style="stroke:#000000; stroke-linecap:round; stroke-linejoin:round; stroke-width:2; stroke-opacity:0.1; fill:none" points="2293.23,1423.18 2293.23,123.472 "/>
<polyline clip-path="url(#clip030)" style="stroke:#000000; stroke-linecap:round; stroke-linejoin:round; stroke-width:4; stroke-opacity:1; fill:none" points="249.542,1423.18 2352.76,1423.18 "/>
<polyline clip-path="url(#clip030)" style="stroke:#000000; stroke-linecap:round; stroke-linejoin:round; stroke-width:4; stroke-opacity:1; fill:none" points="309.067,1423.18 309.067,1404.28 "/>
<polyline clip-path="url(#clip030)" style="stroke:#000000; stroke-linecap:round; stroke-linejoin:round; stroke-width:4; stroke-opacity:1; fill:none" points="805.108,1423.18 805.108,1404.28 "/>
<polyline clip-path="url(#clip030)" style="stroke:#000000; stroke-linecap:round; stroke-linejoin:round; stroke-width:4; stroke-opacity:1; fill:none" points="1301.15,1423.18 1301.15,1404.28 "/>
<polyline clip-path="url(#clip030)" style="stroke:#000000; stroke-linecap:round; stroke-linejoin:round; stroke-width:4; stroke-opacity:1; fill:none" points="1797.19,1423.18 1797.19,1404.28 "/>
<polyline clip-path="url(#clip030)" style="stroke:#000000; stroke-linecap:round; stroke-linejoin:round; stroke-width:4; stroke-opacity:1; fill:none" points="2293.23,1423.18 2293.23,1404.28 "/>
<path clip-path="url(#clip030)" d="M286.451 1454.1 Q282.84 1454.1 281.012 1457.66 Q279.206 1461.2 279.206 1468.33 Q279.206 1475.44 281.012 1479.01 Q282.84 1482.55 286.451 1482.55 Q290.086 1482.55 291.891 1479.01 Q293.72 1475.44 293.72 1468.33 Q293.72 1461.2 291.891 1457.66 Q290.086 1454.1 286.451 1454.1 M286.451 1450.39 Q292.261 1450.39 295.317 1455 Q298.396 1459.58 298.396 1468.33 Q298.396 1477.06 295.317 1481.67 Q292.261 1486.25 286.451 1486.25 Q280.641 1486.25 277.562 1481.67 Q274.507 1477.06 274.507 1468.33 Q274.507 1459.58 277.562 1455 Q280.641 1450.39 286.451 1450.39 Z" fill="#000000" fill-rule="evenodd" fill-opacity="1" /><path clip-path="url(#clip030)" d="M306.613 1479.7 L311.497 1479.7 L311.497 1485.58 L306.613 1485.58 L306.613 1479.7 Z" fill="#000000" fill-rule="evenodd" fill-opacity="1" /><path clip-path="url(#clip030)" d="M331.683 1454.1 Q328.071 1454.1 326.243 1457.66 Q324.437 1461.2 324.437 1468.33 Q324.437 1475.44 326.243 1479.01 Q328.071 1482.55 331.683 1482.55 Q335.317 1482.55 337.122 1479.01 Q338.951 1475.44 338.951 1468.33 Q338.951 1461.2 337.122 1457.66 Q335.317 1454.1 331.683 1454.1 M331.683 1450.39 Q337.493 1450.39 340.548 1455 Q343.627 1459.58 343.627 1468.33 Q343.627 1477.06 340.548 1481.67 Q337.493 1486.25 331.683 1486.25 Q325.872 1486.25 322.794 1481.67 Q319.738 1477.06 319.738 1468.33 Q319.738 1459.58 322.794 1455 Q325.872 1450.39 331.683 1450.39 Z" fill="#000000" fill-rule="evenodd" fill-opacity="1" /><path clip-path="url(#clip030)" d="M776.844 1481.64 L793.164 1481.64 L793.164 1485.58 L771.219 1485.58 L771.219 1481.64 Q773.881 1478.89 778.465 1474.26 Q783.071 1469.61 784.252 1468.27 Q786.497 1465.74 787.377 1464.01 Q788.279 1462.25 788.279 1460.56 Q788.279 1457.8 786.335 1456.07 Q784.414 1454.33 781.312 1454.33 Q779.113 1454.33 776.659 1455.09 Q774.228 1455.86 771.451 1457.41 L771.451 1452.69 Q774.275 1451.55 776.728 1450.97 Q779.182 1450.39 781.219 1450.39 Q786.59 1450.39 789.784 1453.08 Q792.978 1455.77 792.978 1460.26 Q792.978 1462.39 792.168 1464.31 Q791.381 1466.2 789.275 1468.8 Q788.696 1469.47 785.594 1472.69 Q782.492 1475.88 776.844 1481.64 Z" fill="#000000" fill-rule="evenodd" fill-opacity="1" /><path clip-path="url(#clip030)" d="M802.978 1479.7 L807.863 1479.7 L807.863 1485.58 L802.978 1485.58 L802.978 1479.7 Z" fill="#000000" fill-rule="evenodd" fill-opacity="1" /><path clip-path="url(#clip030)" d="M818.094 1451.02 L836.45 1451.02 L836.45 1454.96 L822.376 1454.96 L822.376 1463.43 Q823.395 1463.08 824.413 1462.92 Q825.432 1462.73 826.45 1462.73 Q832.237 1462.73 835.617 1465.9 Q838.997 1469.08 838.997 1474.49 Q838.997 1480.07 835.524 1483.17 Q832.052 1486.25 825.733 1486.25 Q823.557 1486.25 821.288 1485.88 Q819.043 1485.51 816.636 1484.77 L816.636 1480.07 Q818.719 1481.2 820.941 1481.76 Q823.163 1482.32 825.64 1482.32 Q829.645 1482.32 831.983 1480.21 Q834.321 1478.1 834.321 1474.49 Q834.321 1470.88 831.983 1468.77 Q829.645 1466.67 825.64 1466.67 Q823.765 1466.67 821.89 1467.08 Q820.038 1467.5 818.094 1468.38 L818.094 1451.02 Z" fill="#000000" fill-rule="evenodd" fill-opacity="1" /><path clip-path="url(#clip030)" d="M1268.31 1451.02 L1286.67 1451.02 L1286.67 1454.96 L1272.6 1454.96 L1272.6 1463.43 Q1273.61 1463.08 1274.63 1462.92 Q1275.65 1462.73 1276.67 1462.73 Q1282.46 1462.73 1285.84 1465.9 Q1289.22 1469.08 1289.22 1474.49 Q1289.22 1480.07 1285.74 1483.17 Q1282.27 1486.25 1275.95 1486.25 Q1273.78 1486.25 1271.51 1485.88 Q1269.26 1485.51 1266.86 1484.77 L1266.86 1480.07 Q1268.94 1481.2 1271.16 1481.76 Q1273.38 1482.32 1275.86 1482.32 Q1279.86 1482.32 1282.2 1480.21 Q1284.54 1478.1 1284.54 1474.49 Q1284.54 1470.88 1282.2 1468.77 Q1279.86 1466.67 1275.86 1466.67 Q1273.98 1466.67 1272.11 1467.08 Q1270.26 1467.5 1268.31 1468.38 L1268.31 1451.02 Z" fill="#000000" fill-rule="evenodd" fill-opacity="1" /><path clip-path="url(#clip030)" d="M1298.43 1479.7 L1303.31 1479.7 L1303.31 1485.58 L1298.43 1485.58 L1298.43 1479.7 Z" fill="#000000" fill-rule="evenodd" fill-opacity="1" /><path clip-path="url(#clip030)" d="M1323.5 1454.1 Q1319.89 1454.1 1318.06 1457.66 Q1316.25 1461.2 1316.25 1468.33 Q1316.25 1475.44 1318.06 1479.01 Q1319.89 1482.55 1323.5 1482.55 Q1327.13 1482.55 1328.94 1479.01 Q1330.77 1475.44 1330.77 1468.33 Q1330.77 1461.2 1328.94 1457.66 Q1327.13 1454.1 1323.5 1454.1 M1323.5 1450.39 Q1329.31 1450.39 1332.36 1455 Q1335.44 1459.58 1335.44 1468.33 Q1335.44 1477.06 1332.36 1481.67 Q1329.31 1486.25 1323.5 1486.25 Q1317.69 1486.25 1314.61 1481.67 Q1311.55 1477.06 1311.55 1468.33 Q1311.55 1459.58 1314.61 1455 Q1317.69 1450.39 1323.5 1450.39 Z" fill="#000000" fill-rule="evenodd" fill-opacity="1" /><path clip-path="url(#clip030)" d="M1763.51 1451.02 L1785.73 1451.02 L1785.73 1453.01 L1773.19 1485.58 L1768.3 1485.58 L1780.11 1454.96 L1763.51 1454.96 L1763.51 1451.02 Z" fill="#000000" fill-rule="evenodd" fill-opacity="1" /><path clip-path="url(#clip030)" d="M1794.85 1479.7 L1799.74 1479.7 L1799.74 1485.58 L1794.85 1485.58 L1794.85 1479.7 Z" fill="#000000" fill-rule="evenodd" fill-opacity="1" /><path clip-path="url(#clip030)" d="M1809.97 1451.02 L1828.32 1451.02 L1828.32 1454.96 L1814.25 1454.96 L1814.25 1463.43 Q1815.27 1463.08 1816.29 1462.92 Q1817.31 1462.73 1818.32 1462.73 Q1824.11 1462.73 1827.49 1465.9 Q1830.87 1469.08 1830.87 1474.49 Q1830.87 1480.07 1827.4 1483.17 Q1823.93 1486.25 1817.61 1486.25 Q1815.43 1486.25 1813.16 1485.88 Q1810.92 1485.51 1808.51 1484.77 L1808.51 1480.07 Q1810.59 1481.2 1812.81 1481.76 Q1815.04 1482.32 1817.51 1482.32 Q1821.52 1482.32 1823.86 1480.21 Q1826.19 1478.1 1826.19 1474.49 Q1826.19 1470.88 1823.86 1468.77 Q1821.52 1466.67 1817.51 1466.67 Q1815.64 1466.67 1813.76 1467.08 Q1811.91 1467.5 1809.97 1468.38 L1809.97 1451.02 Z" fill="#000000" fill-rule="evenodd" fill-opacity="1" /><path clip-path="url(#clip030)" d="M2245.3 1481.64 L2252.94 1481.64 L2252.94 1455.28 L2244.63 1456.95 L2244.63 1452.69 L2252.9 1451.02 L2257.57 1451.02 L2257.57 1481.64 L2265.21 1481.64 L2265.21 1485.58 L2245.3 1485.58 L2245.3 1481.64 Z" fill="#000000" fill-rule="evenodd" fill-opacity="1" /><path clip-path="url(#clip030)" d="M2284.65 1454.1 Q2281.04 1454.1 2279.21 1457.66 Q2277.41 1461.2 2277.41 1468.33 Q2277.41 1475.44 2279.21 1479.01 Q2281.04 1482.55 2284.65 1482.55 Q2288.29 1482.55 2290.09 1479.01 Q2291.92 1475.44 2291.92 1468.33 Q2291.92 1461.2 2290.09 1457.66 Q2288.29 1454.1 2284.65 1454.1 M2284.65 1450.39 Q2290.46 1450.39 2293.52 1455 Q2296.6 1459.58 2296.6 1468.33 Q2296.6 1477.06 2293.52 1481.67 Q2290.46 1486.25 2284.65 1486.25 Q2278.84 1486.25 2275.77 1481.67 Q2272.71 1477.06 2272.71 1468.33 Q2272.71 1459.58 2275.77 1455 Q2278.84 1450.39 2284.65 1450.39 Z" fill="#000000" fill-rule="evenodd" fill-opacity="1" /><path clip-path="url(#clip030)" d="M2304.82 1479.7 L2309.7 1479.7 L2309.7 1485.58 L2304.82 1485.58 L2304.82 1479.7 Z" fill="#000000" fill-rule="evenodd" fill-opacity="1" /><path clip-path="url(#clip030)" d="M2329.89 1454.1 Q2326.27 1454.1 2324.45 1457.66 Q2322.64 1461.2 2322.64 1468.33 Q2322.64 1475.44 2324.45 1479.01 Q2326.27 1482.55 2329.89 1482.55 Q2333.52 1482.55 2335.33 1479.01 Q2337.15 1475.44 2337.15 1468.33 Q2337.15 1461.2 2335.33 1457.66 Q2333.52 1454.1 2329.89 1454.1 M2329.89 1450.39 Q2335.7 1450.39 2338.75 1455 Q2341.83 1459.58 2341.83 1468.33 Q2341.83 1477.06 2338.75 1481.67 Q2335.7 1486.25 2329.89 1486.25 Q2324.08 1486.25 2321 1481.67 Q2317.94 1477.06 2317.94 1468.33 Q2317.94 1459.58 2321 1455 Q2324.08 1450.39 2329.89 1450.39 Z" fill="#000000" fill-rule="evenodd" fill-opacity="1" /><path clip-path="url(#clip030)" d="M1076.5 1526.86 L1067.78 1550.51 L1085.26 1550.51 L1076.5 1526.86 M1072.87 1520.52 L1080.16 1520.52 L1098.27 1568.04 L1091.59 1568.04 L1087.26 1555.85 L1065.84 1555.85 L1061.51 1568.04 L1054.73 1568.04 L1072.87 1520.52 Z" fill="#000000" fill-rule="evenodd" fill-opacity="1" /><path clip-path="url(#clip030)" d="M1104.35 1553.98 L1104.35 1532.4 L1110.21 1532.4 L1110.21 1553.75 Q1110.21 1558.81 1112.18 1561.36 Q1114.16 1563.87 1118.1 1563.87 Q1122.85 1563.87 1125.58 1560.85 Q1128.35 1557.83 1128.35 1552.61 L1128.35 1532.4 L1134.21 1532.4 L1134.21 1568.04 L1128.35 1568.04 L1128.35 1562.57 Q1126.22 1565.82 1123.39 1567.41 Q1120.59 1568.97 1116.86 1568.97 Q1110.72 1568.97 1107.54 1565.15 Q1104.35 1561.33 1104.35 1553.98 M1119.09 1531.54 L1119.09 1531.54 Z" fill="#000000" fill-rule="evenodd" fill-opacity="1" /><path clip-path="url(#clip030)" d="M1169.73 1549.81 Q1169.73 1543.44 1167.09 1539.94 Q1164.48 1536.44 1159.73 1536.44 Q1155.02 1536.44 1152.38 1539.94 Q1149.77 1543.44 1149.77 1549.81 Q1149.77 1556.14 1152.38 1559.64 Q1155.02 1563.14 1159.73 1563.14 Q1164.48 1563.14 1167.09 1559.64 Q1169.73 1556.14 1169.73 1549.81 M1175.59 1563.62 Q1175.59 1572.72 1171.54 1577.15 Q1167.5 1581.6 1159.16 1581.6 Q1156.07 1581.6 1153.34 1581.13 Q1150.6 1580.68 1148.02 1579.72 L1148.02 1574.03 Q1150.6 1575.43 1153.11 1576.1 Q1155.63 1576.76 1158.24 1576.76 Q1164 1576.76 1166.86 1573.74 Q1169.73 1570.75 1169.73 1564.67 L1169.73 1561.77 Q1167.91 1564.92 1165.08 1566.48 Q1162.25 1568.04 1158.3 1568.04 Q1151.75 1568.04 1147.74 1563.05 Q1143.73 1558.05 1143.73 1549.81 Q1143.73 1541.53 1147.74 1536.53 Q1151.75 1531.54 1158.3 1531.54 Q1162.25 1531.54 1165.08 1533.1 Q1167.91 1534.66 1169.73 1537.81 L1169.73 1532.4 L1175.59 1532.4 L1175.59 1563.62 Z" fill="#000000" fill-rule="evenodd" fill-opacity="1" /><path clip-path="url(#clip030)" d="M1215.4 1539.24 Q1217.6 1535.29 1220.65 1533.41 Q1223.71 1531.54 1227.85 1531.54 Q1233.42 1531.54 1236.44 1535.45 Q1239.47 1539.33 1239.47 1546.53 L1239.47 1568.04 L1233.58 1568.04 L1233.58 1546.72 Q1233.58 1541.59 1231.76 1539.11 Q1229.95 1536.63 1226.22 1536.63 Q1221.67 1536.63 1219.03 1539.65 Q1216.39 1542.68 1216.39 1547.9 L1216.39 1568.04 L1210.5 1568.04 L1210.5 1546.72 Q1210.5 1541.56 1208.69 1539.11 Q1206.87 1536.63 1203.09 1536.63 Q1198.6 1536.63 1195.96 1539.68 Q1193.31 1542.71 1193.31 1547.9 L1193.31 1568.04 L1187.43 1568.04 L1187.43 1532.4 L1193.31 1532.4 L1193.31 1537.93 Q1195.32 1534.66 1198.12 1533.1 Q1200.92 1531.54 1204.77 1531.54 Q1208.66 1531.54 1211.36 1533.51 Q1214.1 1535.48 1215.4 1539.24 Z" fill="#000000" fill-rule="evenodd" fill-opacity="1" /><path clip-path="url(#clip030)" d="M1281.64 1548.76 L1281.64 1551.62 L1254.71 1551.62 Q1255.09 1557.67 1258.34 1560.85 Q1261.62 1564 1267.44 1564 Q1270.82 1564 1273.97 1563.17 Q1277.15 1562.35 1280.27 1560.69 L1280.27 1566.23 Q1277.12 1567.57 1273.81 1568.27 Q1270.5 1568.97 1267.09 1568.97 Q1258.56 1568.97 1253.57 1564 Q1248.6 1559.04 1248.6 1550.57 Q1248.6 1541.82 1253.31 1536.69 Q1258.05 1531.54 1266.07 1531.54 Q1273.27 1531.54 1277.44 1536.18 Q1281.64 1540.8 1281.64 1548.76 M1275.78 1547.04 Q1275.72 1542.23 1273.08 1539.37 Q1270.47 1536.5 1266.14 1536.5 Q1261.24 1536.5 1258.28 1539.27 Q1255.35 1542.04 1254.9 1547.07 L1275.78 1547.04 Z" fill="#000000" fill-rule="evenodd" fill-opacity="1" /><path clip-path="url(#clip030)" d="M1320.88 1546.53 L1320.88 1568.04 L1315.03 1568.04 L1315.03 1546.72 Q1315.03 1541.66 1313.05 1539.14 Q1311.08 1536.63 1307.13 1536.63 Q1302.39 1536.63 1299.65 1539.65 Q1296.92 1542.68 1296.92 1547.9 L1296.92 1568.04 L1291.03 1568.04 L1291.03 1532.4 L1296.92 1532.4 L1296.92 1537.93 Q1299.02 1534.72 1301.85 1533.13 Q1304.71 1531.54 1308.44 1531.54 Q1314.58 1531.54 1317.73 1535.36 Q1320.88 1539.14 1320.88 1546.53 Z" fill="#000000" fill-rule="evenodd" fill-opacity="1" /><path clip-path="url(#clip030)" d="M1338.36 1522.27 L1338.36 1532.4 L1350.42 1532.4 L1350.42 1536.95 L1338.36 1536.95 L1338.36 1556.3 Q1338.36 1560.66 1339.53 1561.9 Q1340.74 1563.14 1344.4 1563.14 L1350.42 1563.14 L1350.42 1568.04 L1344.4 1568.04 Q1337.62 1568.04 1335.05 1565.53 Q1332.47 1562.98 1332.47 1556.3 L1332.47 1536.95 L1328.17 1536.95 L1328.17 1532.4 L1332.47 1532.4 L1332.47 1522.27 L1338.36 1522.27 Z" fill="#000000" fill-rule="evenodd" fill-opacity="1" /><path clip-path="url(#clip030)" d="M1374.32 1550.12 Q1367.23 1550.12 1364.49 1551.75 Q1361.75 1553.37 1361.75 1557.29 Q1361.75 1560.4 1363.79 1562.25 Q1365.86 1564.07 1369.39 1564.07 Q1374.26 1564.07 1377.19 1560.63 Q1380.15 1557.16 1380.15 1551.43 L1380.15 1550.12 L1374.32 1550.12 M1386 1547.71 L1386 1568.04 L1380.15 1568.04 L1380.15 1562.63 Q1378.14 1565.88 1375.15 1567.44 Q1372.16 1568.97 1367.83 1568.97 Q1362.36 1568.97 1359.11 1565.91 Q1355.89 1562.82 1355.89 1557.67 Q1355.89 1551.65 1359.9 1548.6 Q1363.95 1545.54 1371.94 1545.54 L1380.15 1545.54 L1380.15 1544.97 Q1380.15 1540.93 1377.47 1538.73 Q1374.83 1536.5 1370.03 1536.5 Q1366.97 1536.5 1364.07 1537.23 Q1361.18 1537.97 1358.5 1539.43 L1358.5 1534.02 Q1361.72 1532.78 1364.74 1532.17 Q1367.77 1531.54 1370.63 1531.54 Q1378.36 1531.54 1382.18 1535.55 Q1386 1539.56 1386 1547.71 Z" fill="#000000" fill-rule="evenodd" fill-opacity="1" /><path clip-path="url(#clip030)" d="M1403.86 1522.27 L1403.86 1532.4 L1415.92 1532.4 L1415.92 1536.95 L1403.86 1536.95 L1403.86 1556.3 Q1403.86 1560.66 1405.04 1561.9 Q1406.25 1563.14 1409.91 1563.14 L1415.92 1563.14 L1415.92 1568.04 L1409.91 1568.04 Q1403.13 1568.04 1400.55 1565.53 Q1397.97 1562.98 1397.97 1556.3 L1397.97 1536.95 L1393.67 1536.95 L1393.67 1532.4 L1397.97 1532.4 L1397.97 1522.27 L1403.86 1522.27 Z" fill="#000000" fill-rule="evenodd" fill-opacity="1" /><path clip-path="url(#clip030)" d="M1423.63 1532.4 L1429.48 1532.4 L1429.48 1568.04 L1423.63 1568.04 L1423.63 1532.4 M1423.63 1518.52 L1429.48 1518.52 L1429.48 1525.93 L1423.63 1525.93 L1423.63 1518.52 Z" fill="#000000" fill-rule="evenodd" fill-opacity="1" /><path clip-path="url(#clip030)" d="M1455.55 1536.5 Q1450.84 1536.5 1448.1 1540.19 Q1445.36 1543.85 1445.36 1550.25 Q1445.36 1556.65 1448.07 1560.34 Q1450.81 1564 1455.55 1564 Q1460.23 1564 1462.97 1560.31 Q1465.7 1556.62 1465.7 1550.25 Q1465.7 1543.92 1462.97 1540.23 Q1460.23 1536.5 1455.55 1536.5 M1455.55 1531.54 Q1463.19 1531.54 1467.55 1536.5 Q1471.91 1541.47 1471.91 1550.25 Q1471.91 1559 1467.55 1564 Q1463.19 1568.97 1455.55 1568.97 Q1447.88 1568.97 1443.52 1564 Q1439.19 1559 1439.19 1550.25 Q1439.19 1541.47 1443.52 1536.5 Q1447.88 1531.54 1455.55 1531.54 Z" fill="#000000" fill-rule="evenodd" fill-opacity="1" /><path clip-path="url(#clip030)" d="M1511.25 1546.53 L1511.25 1568.04 L1505.39 1568.04 L1505.39 1546.72 Q1505.39 1541.66 1503.42 1539.14 Q1501.45 1536.63 1497.5 1536.63 Q1492.76 1536.63 1490.02 1539.65 Q1487.28 1542.68 1487.28 1547.9 L1487.28 1568.04 L1481.39 1568.04 L1481.39 1532.4 L1487.28 1532.4 L1487.28 1537.93 Q1489.38 1534.72 1492.22 1533.13 Q1495.08 1531.54 1498.8 1531.54 Q1504.95 1531.54 1508.1 1535.36 Q1511.25 1539.14 1511.25 1546.53 Z" fill="#000000" fill-rule="evenodd" fill-opacity="1" /><path clip-path="url(#clip030)" d="M1545.66 1533.45 L1545.66 1538.98 Q1543.17 1537.71 1540.5 1537.07 Q1537.83 1536.44 1534.96 1536.44 Q1530.6 1536.44 1528.4 1537.77 Q1526.24 1539.11 1526.24 1541.79 Q1526.24 1543.82 1527.8 1545 Q1529.36 1546.15 1534.07 1547.2 L1536.08 1547.64 Q1542.31 1548.98 1544.92 1551.43 Q1547.57 1553.85 1547.57 1558.21 Q1547.57 1563.17 1543.62 1566.07 Q1539.7 1568.97 1532.83 1568.97 Q1529.96 1568.97 1526.85 1568.39 Q1523.76 1567.85 1520.32 1566.74 L1520.32 1560.69 Q1523.57 1562.38 1526.72 1563.24 Q1529.87 1564.07 1532.96 1564.07 Q1537.09 1564.07 1539.32 1562.66 Q1541.55 1561.23 1541.55 1558.65 Q1541.55 1556.27 1539.93 1554.99 Q1538.34 1553.72 1532.89 1552.54 L1530.86 1552.07 Q1525.41 1550.92 1522.99 1548.56 Q1520.57 1546.18 1520.57 1542.04 Q1520.57 1537.01 1524.14 1534.27 Q1527.7 1531.54 1534.26 1531.54 Q1537.51 1531.54 1540.37 1532.01 Q1543.24 1532.49 1545.66 1533.45 Z" fill="#000000" fill-rule="evenodd" fill-opacity="1" /><polyline clip-path="url(#clip032)" style="stroke:#000000; stroke-linecap:round; stroke-linejoin:round; stroke-width:2; stroke-opacity:0.1; fill:none" points="249.542,1324.8 2352.76,1324.8 "/>
<polyline clip-path="url(#clip032)" style="stroke:#000000; stroke-linecap:round; stroke-linejoin:round; stroke-width:2; stroke-opacity:0.1; fill:none" points="249.542,1077.66 2352.76,1077.66 "/>
<polyline clip-path="url(#clip032)" style="stroke:#000000; stroke-linecap:round; stroke-linejoin:round; stroke-width:2; stroke-opacity:0.1; fill:none" points="249.542,830.516 2352.76,830.516 "/>
<polyline clip-path="url(#clip032)" style="stroke:#000000; stroke-linecap:round; stroke-linejoin:round; stroke-width:2; stroke-opacity:0.1; fill:none" points="249.542,583.374 2352.76,583.374 "/>
<polyline clip-path="url(#clip032)" style="stroke:#000000; stroke-linecap:round; stroke-linejoin:round; stroke-width:2; stroke-opacity:0.1; fill:none" points="249.542,336.231 2352.76,336.231 "/>
<polyline clip-path="url(#clip030)" style="stroke:#000000; stroke-linecap:round; stroke-linejoin:round; stroke-width:4; stroke-opacity:1; fill:none" points="249.542,1423.18 249.542,123.472 "/>
<polyline clip-path="url(#clip030)" style="stroke:#000000; stroke-linecap:round; stroke-linejoin:round; stroke-width:4; stroke-opacity:1; fill:none" points="249.542,1324.8 268.44,1324.8 "/>
<polyline clip-path="url(#clip030)" style="stroke:#000000; stroke-linecap:round; stroke-linejoin:round; stroke-width:4; stroke-opacity:1; fill:none" points="249.542,1077.66 268.44,1077.66 "/>
<polyline clip-path="url(#clip030)" style="stroke:#000000; stroke-linecap:round; stroke-linejoin:round; stroke-width:4; stroke-opacity:1; fill:none" points="249.542,830.516 268.44,830.516 "/>
<polyline clip-path="url(#clip030)" style="stroke:#000000; stroke-linecap:round; stroke-linejoin:round; stroke-width:4; stroke-opacity:1; fill:none" points="249.542,583.374 268.44,583.374 "/>
<polyline clip-path="url(#clip030)" style="stroke:#000000; stroke-linecap:round; stroke-linejoin:round; stroke-width:4; stroke-opacity:1; fill:none" points="249.542,336.231 268.44,336.231 "/>
<path clip-path="url(#clip030)" d="M127.107 1310.6 Q123.496 1310.6 121.668 1314.16 Q119.862 1317.71 119.862 1324.84 Q119.862 1331.94 121.668 1335.51 Q123.496 1339.05 127.107 1339.05 Q130.742 1339.05 132.547 1335.51 Q134.376 1331.94 134.376 1324.84 Q134.376 1317.71 132.547 1314.16 Q130.742 1310.6 127.107 1310.6 M127.107 1306.9 Q132.917 1306.9 135.973 1311.5 Q139.052 1316.09 139.052 1324.84 Q139.052 1333.56 135.973 1338.17 Q132.917 1342.75 127.107 1342.75 Q121.297 1342.75 118.218 1338.17 Q115.163 1333.56 115.163 1324.84 Q115.163 1316.09 118.218 1311.5 Q121.297 1306.9 127.107 1306.9 Z" fill="#000000" fill-rule="evenodd" fill-opacity="1" /><path clip-path="url(#clip030)" d="M147.269 1336.2 L152.153 1336.2 L152.153 1342.08 L147.269 1342.08 L147.269 1336.2 Z" fill="#000000" fill-rule="evenodd" fill-opacity="1" /><path clip-path="url(#clip030)" d="M172.339 1325.67 Q169.005 1325.67 167.084 1327.45 Q165.186 1329.23 165.186 1332.36 Q165.186 1335.48 167.084 1337.27 Q169.005 1339.05 172.339 1339.05 Q175.672 1339.05 177.593 1337.27 Q179.514 1335.46 179.514 1332.36 Q179.514 1329.23 177.593 1327.45 Q175.695 1325.67 172.339 1325.67 M167.663 1323.68 Q164.653 1322.94 162.964 1320.88 Q161.297 1318.82 161.297 1315.85 Q161.297 1311.71 164.237 1309.3 Q167.2 1306.9 172.339 1306.9 Q177.501 1306.9 180.44 1309.3 Q183.38 1311.71 183.38 1315.85 Q183.38 1318.82 181.69 1320.88 Q180.024 1322.94 177.038 1323.68 Q180.417 1324.47 182.292 1326.76 Q184.19 1329.05 184.19 1332.36 Q184.19 1337.38 181.112 1340.07 Q178.056 1342.75 172.339 1342.75 Q166.621 1342.75 163.542 1340.07 Q160.487 1337.38 160.487 1332.36 Q160.487 1329.05 162.385 1326.76 Q164.283 1324.47 167.663 1323.68 M165.95 1316.29 Q165.95 1318.98 167.616 1320.48 Q169.306 1321.99 172.339 1321.99 Q175.348 1321.99 177.038 1320.48 Q178.751 1318.98 178.751 1316.29 Q178.751 1313.61 177.038 1312.1 Q175.348 1310.6 172.339 1310.6 Q169.306 1310.6 167.616 1312.1 Q165.95 1313.61 165.95 1316.29 Z" fill="#000000" fill-rule="evenodd" fill-opacity="1" /><path clip-path="url(#clip030)" d="M191.32 1307.52 L213.542 1307.52 L213.542 1309.51 L200.996 1342.08 L196.112 1342.08 L207.917 1311.46 L191.32 1311.46 L191.32 1307.52 Z" fill="#000000" fill-rule="evenodd" fill-opacity="1" /><path clip-path="url(#clip030)" d="M126.297 1063.46 Q122.686 1063.46 120.857 1067.02 Q119.052 1070.56 119.052 1077.69 Q119.052 1084.8 120.857 1088.36 Q122.686 1091.91 126.297 1091.91 Q129.931 1091.91 131.737 1088.36 Q133.566 1084.8 133.566 1077.69 Q133.566 1070.56 131.737 1067.02 Q129.931 1063.46 126.297 1063.46 M126.297 1059.75 Q132.107 1059.75 135.163 1064.36 Q138.242 1068.94 138.242 1077.69 Q138.242 1086.42 135.163 1091.03 Q132.107 1095.61 126.297 1095.61 Q120.487 1095.61 117.408 1091.03 Q114.353 1086.42 114.353 1077.69 Q114.353 1068.94 117.408 1064.36 Q120.487 1059.75 126.297 1059.75 Z" fill="#000000" fill-rule="evenodd" fill-opacity="1" /><path clip-path="url(#clip030)" d="M146.459 1089.06 L151.343 1089.06 L151.343 1094.94 L146.459 1094.94 L146.459 1089.06 Z" fill="#000000" fill-rule="evenodd" fill-opacity="1" /><path clip-path="url(#clip030)" d="M171.528 1078.53 Q168.195 1078.53 166.274 1080.31 Q164.376 1082.09 164.376 1085.22 Q164.376 1088.34 166.274 1090.12 Q168.195 1091.91 171.528 1091.91 Q174.862 1091.91 176.783 1090.12 Q178.704 1088.32 178.704 1085.22 Q178.704 1082.09 176.783 1080.31 Q174.885 1078.53 171.528 1078.53 M166.852 1076.54 Q163.843 1075.79 162.153 1073.73 Q160.487 1071.67 160.487 1068.71 Q160.487 1064.57 163.427 1062.16 Q166.39 1059.75 171.528 1059.75 Q176.69 1059.75 179.63 1062.16 Q182.57 1064.57 182.57 1068.71 Q182.57 1071.67 180.88 1073.73 Q179.214 1075.79 176.227 1076.54 Q179.607 1077.32 181.482 1079.61 Q183.38 1081.91 183.38 1085.22 Q183.38 1090.24 180.301 1092.92 Q177.246 1095.61 171.528 1095.61 Q165.811 1095.61 162.732 1092.92 Q159.677 1090.24 159.677 1085.22 Q159.677 1081.91 161.575 1079.61 Q163.473 1077.32 166.852 1076.54 M165.14 1069.15 Q165.14 1071.84 166.806 1073.34 Q168.496 1074.85 171.528 1074.85 Q174.538 1074.85 176.227 1073.34 Q177.94 1071.84 177.94 1069.15 Q177.94 1066.47 176.227 1064.96 Q174.538 1063.46 171.528 1063.46 Q168.496 1063.46 166.806 1064.96 Q165.14 1066.47 165.14 1069.15 Z" fill="#000000" fill-rule="evenodd" fill-opacity="1" /><path clip-path="url(#clip030)" d="M201.69 1078.53 Q198.357 1078.53 196.436 1080.31 Q194.538 1082.09 194.538 1085.22 Q194.538 1088.34 196.436 1090.12 Q198.357 1091.91 201.69 1091.91 Q205.024 1091.91 206.945 1090.12 Q208.866 1088.32 208.866 1085.22 Q208.866 1082.09 206.945 1080.31 Q205.047 1078.53 201.69 1078.53 M197.014 1076.54 Q194.005 1075.79 192.315 1073.73 Q190.649 1071.67 190.649 1068.71 Q190.649 1064.57 193.588 1062.16 Q196.551 1059.75 201.69 1059.75 Q206.852 1059.75 209.792 1062.16 Q212.732 1064.57 212.732 1068.71 Q212.732 1071.67 211.042 1073.73 Q209.375 1075.79 206.389 1076.54 Q209.769 1077.32 211.644 1079.61 Q213.542 1081.91 213.542 1085.22 Q213.542 1090.24 210.463 1092.92 Q207.408 1095.61 201.69 1095.61 Q195.973 1095.61 192.894 1092.92 Q189.838 1090.24 189.838 1085.22 Q189.838 1081.91 191.737 1079.61 Q193.635 1077.32 197.014 1076.54 M195.301 1069.15 Q195.301 1071.84 196.968 1073.34 Q198.658 1074.85 201.69 1074.85 Q204.699 1074.85 206.389 1073.34 Q208.102 1071.84 208.102 1069.15 Q208.102 1066.47 206.389 1064.96 Q204.699 1063.46 201.69 1063.46 Q198.658 1063.46 196.968 1064.96 Q195.301 1066.47 195.301 1069.15 Z" fill="#000000" fill-rule="evenodd" fill-opacity="1" /><path clip-path="url(#clip030)" d="M126.39 816.315 Q122.779 816.315 120.95 819.879 Q119.144 823.421 119.144 830.551 Q119.144 837.657 120.95 841.222 Q122.779 844.764 126.39 844.764 Q130.024 844.764 131.83 841.222 Q133.658 837.657 133.658 830.551 Q133.658 823.421 131.83 819.879 Q130.024 816.315 126.39 816.315 M126.39 812.611 Q132.2 812.611 135.255 817.217 Q138.334 821.801 138.334 830.551 Q138.334 839.278 135.255 843.884 Q132.2 848.467 126.39 848.467 Q120.58 848.467 117.501 843.884 Q114.445 839.278 114.445 830.551 Q114.445 821.801 117.501 817.217 Q120.58 812.611 126.39 812.611 Z" fill="#000000" fill-rule="evenodd" fill-opacity="1" /><path clip-path="url(#clip030)" d="M146.552 841.916 L151.436 841.916 L151.436 847.796 L146.552 847.796 L146.552 841.916 Z" fill="#000000" fill-rule="evenodd" fill-opacity="1" /><path clip-path="url(#clip030)" d="M171.621 831.384 Q168.288 831.384 166.366 833.166 Q164.468 834.949 164.468 838.074 Q164.468 841.199 166.366 842.981 Q168.288 844.764 171.621 844.764 Q174.954 844.764 176.876 842.981 Q178.797 841.176 178.797 838.074 Q178.797 834.949 176.876 833.166 Q174.977 831.384 171.621 831.384 M166.945 829.393 Q163.936 828.653 162.246 826.592 Q160.579 824.532 160.579 821.569 Q160.579 817.426 163.519 815.018 Q166.482 812.611 171.621 812.611 Q176.783 812.611 179.723 815.018 Q182.663 817.426 182.663 821.569 Q182.663 824.532 180.973 826.592 Q179.306 828.653 176.32 829.393 Q179.7 830.18 181.575 832.472 Q183.473 834.764 183.473 838.074 Q183.473 843.097 180.394 845.782 Q177.339 848.467 171.621 848.467 Q165.903 848.467 162.825 845.782 Q159.769 843.097 159.769 838.074 Q159.769 834.764 161.667 832.472 Q163.565 830.18 166.945 829.393 M165.232 822.009 Q165.232 824.694 166.899 826.199 Q168.589 827.703 171.621 827.703 Q174.63 827.703 176.32 826.199 Q178.033 824.694 178.033 822.009 Q178.033 819.324 176.32 817.819 Q174.63 816.315 171.621 816.315 Q168.589 816.315 166.899 817.819 Q165.232 819.324 165.232 822.009 Z" fill="#000000" fill-rule="evenodd" fill-opacity="1" /><path clip-path="url(#clip030)" d="M191.922 847.078 L191.922 842.819 Q193.681 843.652 195.487 844.092 Q197.292 844.532 199.028 844.532 Q203.658 844.532 206.088 841.43 Q208.542 838.305 208.889 831.963 Q207.547 833.953 205.487 835.018 Q203.426 836.083 200.926 836.083 Q195.741 836.083 192.709 832.958 Q189.7 829.81 189.7 824.37 Q189.7 819.046 192.848 815.829 Q195.996 812.611 201.227 812.611 Q207.223 812.611 210.371 817.217 Q213.542 821.801 213.542 830.551 Q213.542 838.722 209.653 843.606 Q205.787 848.467 199.237 848.467 Q197.477 848.467 195.672 848.12 Q193.866 847.773 191.922 847.078 M201.227 832.426 Q204.375 832.426 206.204 830.273 Q208.056 828.12 208.056 824.37 Q208.056 820.643 206.204 818.491 Q204.375 816.315 201.227 816.315 Q198.079 816.315 196.227 818.491 Q194.399 820.643 194.399 824.37 Q194.399 828.12 196.227 830.273 Q198.079 832.426 201.227 832.426 Z" fill="#000000" fill-rule="evenodd" fill-opacity="1" /><path clip-path="url(#clip030)" d="M126.205 569.172 Q122.593 569.172 120.765 572.737 Q118.959 576.279 118.959 583.408 Q118.959 590.515 120.765 594.08 Q122.593 597.621 126.205 597.621 Q129.839 597.621 131.644 594.08 Q133.473 590.515 133.473 583.408 Q133.473 576.279 131.644 572.737 Q129.839 569.172 126.205 569.172 M126.205 565.469 Q132.015 565.469 135.07 570.075 Q138.149 574.658 138.149 583.408 Q138.149 592.135 135.07 596.742 Q132.015 601.325 126.205 601.325 Q120.394 601.325 117.316 596.742 Q114.26 592.135 114.26 583.408 Q114.26 574.658 117.316 570.075 Q120.394 565.469 126.205 565.469 Z" fill="#000000" fill-rule="evenodd" fill-opacity="1" /><path clip-path="url(#clip030)" d="M146.366 594.774 L151.251 594.774 L151.251 600.654 L146.366 600.654 L146.366 594.774 Z" fill="#000000" fill-rule="evenodd" fill-opacity="1" /><path clip-path="url(#clip030)" d="M161.575 599.936 L161.575 595.677 Q163.334 596.51 165.14 596.95 Q166.945 597.39 168.681 597.39 Q173.311 597.39 175.741 594.288 Q178.195 591.163 178.542 584.82 Q177.2 586.811 175.139 587.876 Q173.079 588.941 170.579 588.941 Q165.394 588.941 162.362 585.816 Q159.353 582.668 159.353 577.228 Q159.353 571.904 162.501 568.686 Q165.649 565.469 170.88 565.469 Q176.876 565.469 180.024 570.075 Q183.195 574.658 183.195 583.408 Q183.195 591.58 179.306 596.464 Q175.44 601.325 168.889 601.325 Q167.13 601.325 165.325 600.978 Q163.519 600.63 161.575 599.936 M170.88 585.283 Q174.028 585.283 175.857 583.131 Q177.709 580.978 177.709 577.228 Q177.709 573.501 175.857 571.348 Q174.028 569.172 170.88 569.172 Q167.732 569.172 165.88 571.348 Q164.052 573.501 164.052 577.228 Q164.052 580.978 165.88 583.131 Q167.732 585.283 170.88 585.283 Z" fill="#000000" fill-rule="evenodd" fill-opacity="1" /><path clip-path="url(#clip030)" d="M201.598 569.172 Q197.987 569.172 196.158 572.737 Q194.352 576.279 194.352 583.408 Q194.352 590.515 196.158 594.08 Q197.987 597.621 201.598 597.621 Q205.232 597.621 207.037 594.08 Q208.866 590.515 208.866 583.408 Q208.866 576.279 207.037 572.737 Q205.232 569.172 201.598 569.172 M201.598 565.469 Q207.408 565.469 210.463 570.075 Q213.542 574.658 213.542 583.408 Q213.542 592.135 210.463 596.742 Q207.408 601.325 201.598 601.325 Q195.787 601.325 192.709 596.742 Q189.653 592.135 189.653 583.408 Q189.653 574.658 192.709 570.075 Q195.787 565.469 201.598 565.469 Z" fill="#000000" fill-rule="evenodd" fill-opacity="1" /><path clip-path="url(#clip030)" d="M127.431 322.03 Q123.82 322.03 121.992 325.595 Q120.186 329.136 120.186 336.266 Q120.186 343.372 121.992 346.937 Q123.82 350.479 127.431 350.479 Q131.066 350.479 132.871 346.937 Q134.7 343.372 134.7 336.266 Q134.7 329.136 132.871 325.595 Q131.066 322.03 127.431 322.03 M127.431 318.326 Q133.242 318.326 136.297 322.933 Q139.376 327.516 139.376 336.266 Q139.376 344.993 136.297 349.599 Q133.242 354.183 127.431 354.183 Q121.621 354.183 118.543 349.599 Q115.487 344.993 115.487 336.266 Q115.487 327.516 118.543 322.933 Q121.621 318.326 127.431 318.326 Z" fill="#000000" fill-rule="evenodd" fill-opacity="1" /><path clip-path="url(#clip030)" d="M147.593 347.632 L152.478 347.632 L152.478 353.511 L147.593 353.511 L147.593 347.632 Z" fill="#000000" fill-rule="evenodd" fill-opacity="1" /><path clip-path="url(#clip030)" d="M162.802 352.794 L162.802 348.534 Q164.561 349.368 166.366 349.808 Q168.172 350.247 169.908 350.247 Q174.538 350.247 176.968 347.146 Q179.422 344.021 179.769 337.678 Q178.426 339.669 176.366 340.734 Q174.306 341.798 171.806 341.798 Q166.621 341.798 163.589 338.673 Q160.579 335.525 160.579 330.085 Q160.579 324.761 163.727 321.544 Q166.876 318.326 172.107 318.326 Q178.102 318.326 181.251 322.933 Q184.422 327.516 184.422 336.266 Q184.422 344.437 180.533 349.321 Q176.667 354.183 170.116 354.183 Q168.357 354.183 166.552 353.835 Q164.746 353.488 162.802 352.794 M172.107 338.141 Q175.255 338.141 177.084 335.988 Q178.936 333.835 178.936 330.085 Q178.936 326.359 177.084 324.206 Q175.255 322.03 172.107 322.03 Q168.959 322.03 167.107 324.206 Q165.278 326.359 165.278 330.085 Q165.278 333.835 167.107 335.988 Q168.959 338.141 172.107 338.141 Z" fill="#000000" fill-rule="evenodd" fill-opacity="1" /><path clip-path="url(#clip030)" d="M193.635 349.576 L201.274 349.576 L201.274 323.21 L192.963 324.877 L192.963 320.618 L201.227 318.951 L205.903 318.951 L205.903 349.576 L213.542 349.576 L213.542 353.511 L193.635 353.511 L193.635 349.576 Z" fill="#000000" fill-rule="evenodd" fill-opacity="1" /><path clip-path="url(#clip030)" d="M22.818 899.128 L46.4666 907.849 L46.4666 890.375 L22.818 899.128 M16.4842 902.757 L16.4842 895.468 L64.0042 877.358 L64.0042 884.042 L51.8138 888.37 L51.8138 909.791 L64.0042 914.12 L64.0042 920.899 L16.4842 902.757 Z" fill="#000000" fill-rule="evenodd" fill-opacity="1" /><path clip-path="url(#clip030)" d="M29.7248 846.166 L35.1993 846.166 Q33.8307 848.648 33.1623 851.163 Q32.4621 853.645 32.4621 856.192 Q32.4621 861.889 36.0905 865.04 Q39.6872 868.191 46.212 868.191 Q52.7369 868.191 56.3653 865.04 Q59.9619 861.889 59.9619 856.192 Q59.9619 853.645 59.2935 851.163 Q58.5933 848.648 57.2247 846.166 L62.6355 846.166 Q63.7814 848.616 64.3543 851.258 Q64.9272 853.868 64.9272 856.828 Q64.9272 864.881 59.8664 869.623 Q54.8057 874.366 46.212 874.366 Q37.491 874.366 32.4939 869.591 Q27.4968 864.785 27.4968 856.446 Q27.4968 853.741 28.0697 851.163 Q28.6108 848.585 29.7248 846.166 Z" fill="#000000" fill-rule="evenodd" fill-opacity="1" /><path clip-path="url(#clip030)" d="M29.7248 810.327 L35.1993 810.327 Q33.8307 812.809 33.1623 815.324 Q32.4621 817.806 32.4621 820.353 Q32.4621 826.05 36.0905 829.201 Q39.6872 832.352 46.212 832.352 Q52.7369 832.352 56.3653 829.201 Q59.9619 826.05 59.9619 820.353 Q59.9619 817.806 59.2935 815.324 Q58.5933 812.809 57.2247 810.327 L62.6355 810.327 Q63.7814 812.777 64.3543 815.419 Q64.9272 818.029 64.9272 820.989 Q64.9272 829.042 59.8664 833.784 Q54.8057 838.527 46.212 838.527 Q37.491 838.527 32.4939 833.752 Q27.4968 828.946 27.4968 820.607 Q27.4968 817.902 28.0697 815.324 Q28.6108 812.746 29.7248 810.327 Z" fill="#000000" fill-rule="evenodd" fill-opacity="1" /><path clip-path="url(#clip030)" d="M49.9359 800.746 L28.3562 800.746 L28.3562 794.89 L49.7131 794.89 Q54.7739 794.89 57.3202 792.916 Q59.8346 790.943 59.8346 786.996 Q59.8346 782.254 56.8109 779.517 Q53.7872 776.748 48.5673 776.748 L28.3562 776.748 L28.3562 770.891 L64.0042 770.891 L64.0042 776.748 L58.5296 776.748 Q61.7762 778.88 63.3676 781.713 Q64.9272 784.514 64.9272 788.238 Q64.9272 794.381 61.1078 797.563 Q57.2883 800.746 49.9359 800.746 M27.4968 786.01 L27.4968 786.01 Z" fill="#000000" fill-rule="evenodd" fill-opacity="1" /><path clip-path="url(#clip030)" d="M33.8307 738.171 Q33.2578 739.158 33.0032 740.336 Q32.7167 741.482 32.7167 742.882 Q32.7167 747.847 35.9632 750.521 Q39.1779 753.163 45.2253 753.163 L64.0042 753.163 L64.0042 759.051 L28.3562 759.051 L28.3562 753.163 L33.8944 753.163 Q30.6479 751.317 29.0883 748.356 Q27.4968 745.396 27.4968 741.163 Q27.4968 740.559 27.5923 739.826 Q27.656 739.094 27.8151 738.203 L33.8307 738.171 Z" fill="#000000" fill-rule="evenodd" fill-opacity="1" /><path clip-path="url(#clip030)" d="M46.0847 715.828 Q46.0847 722.926 47.7079 725.663 Q49.3312 728.4 53.2461 728.4 Q56.3653 728.4 58.2114 726.363 Q60.0256 724.294 60.0256 720.761 Q60.0256 715.891 56.5881 712.963 Q53.1188 710.003 47.3897 710.003 L46.0847 710.003 L46.0847 715.828 M43.6657 704.147 L64.0042 704.147 L64.0042 710.003 L58.5933 710.003 Q61.8398 712.008 63.3994 715 Q64.9272 717.992 64.9272 722.321 Q64.9272 727.795 61.8716 731.042 Q58.7843 734.256 53.6281 734.256 Q47.6125 734.256 44.5569 730.246 Q41.5014 726.204 41.5014 718.215 L41.5014 710.003 L40.9285 710.003 Q36.8862 710.003 34.6901 712.677 Q32.4621 715.318 32.4621 720.125 Q32.4621 723.18 33.1941 726.077 Q33.9262 728.973 35.3903 731.647 L29.9795 731.647 Q28.7381 728.432 28.1334 725.408 Q27.4968 722.384 27.4968 719.52 Q27.4968 711.786 31.5072 707.966 Q35.5176 704.147 43.6657 704.147 Z" fill="#000000" fill-rule="evenodd" fill-opacity="1" /><path clip-path="url(#clip030)" d="M29.7248 666.43 L35.1993 666.43 Q33.8307 668.912 33.1623 671.427 Q32.4621 673.91 32.4621 676.456 Q32.4621 682.153 36.0905 685.304 Q39.6872 688.455 46.212 688.455 Q52.7369 688.455 56.3653 685.304 Q59.9619 682.153 59.9619 676.456 Q59.9619 673.91 59.2935 671.427 Q58.5933 668.912 57.2247 666.43 L62.6355 666.43 Q63.7814 668.881 64.3543 671.522 Q64.9272 674.132 64.9272 677.092 Q64.9272 685.145 59.8664 689.887 Q54.8057 694.63 46.212 694.63 Q37.491 694.63 32.4939 689.856 Q27.4968 685.05 27.4968 676.71 Q27.4968 674.005 28.0697 671.427 Q28.6108 668.849 29.7248 666.43 Z" fill="#000000" fill-rule="evenodd" fill-opacity="1" /><path clip-path="url(#clip030)" d="M67.3143 641.413 Q73.68 643.895 75.6216 646.251 Q77.5631 648.606 77.5631 652.553 L77.5631 657.231 L72.6615 657.231 L72.6615 653.794 Q72.6615 651.375 71.5157 650.038 Q70.3699 648.701 66.1048 647.078 L63.4312 646.028 L28.3562 660.446 L28.3562 654.24 L56.238 643.1 L28.3562 631.96 L28.3562 625.753 L67.3143 641.413 Z" fill="#000000" fill-rule="evenodd" fill-opacity="1" /><path clip-path="url(#clip030)" d="M753.325 20.1573 L742.225 50.2555 L764.465 50.2555 L753.325 20.1573 M748.707 12.096 L757.983 12.096 L781.033 72.576 L772.526 72.576 L767.017 57.061 L739.754 57.061 L734.245 72.576 L725.617 72.576 L748.707 12.096 Z" fill="#000000" fill-rule="evenodd" fill-opacity="1" /><path clip-path="url(#clip030)" d="M820.732 28.9478 L820.732 35.9153 Q817.572 34.1734 814.372 33.3227 Q811.212 32.4315 807.972 32.4315 Q800.721 32.4315 796.71 37.0496 Q792.7 41.6271 792.7 49.9314 Q792.7 58.2358 796.71 62.8538 Q800.721 67.4314 807.972 67.4314 Q811.212 67.4314 814.372 66.5807 Q817.572 65.6895 820.732 63.9476 L820.732 70.8341 Q817.613 72.2924 814.251 73.0216 Q810.929 73.7508 807.161 73.7508 Q796.913 73.7508 790.877 67.3098 Q784.841 60.8689 784.841 49.9314 Q784.841 38.832 790.917 32.472 Q797.034 26.1121 807.648 26.1121 Q811.091 26.1121 814.372 26.8413 Q817.653 27.5299 820.732 28.9478 Z" fill="#000000" fill-rule="evenodd" fill-opacity="1" /><path clip-path="url(#clip030)" d="M866.345 28.9478 L866.345 35.9153 Q863.185 34.1734 859.985 33.3227 Q856.826 32.4315 853.585 32.4315 Q846.334 32.4315 842.323 37.0496 Q838.313 41.6271 838.313 49.9314 Q838.313 58.2358 842.323 62.8538 Q846.334 67.4314 853.585 67.4314 Q856.826 67.4314 859.985 66.5807 Q863.185 65.6895 866.345 63.9476 L866.345 70.8341 Q863.226 72.2924 859.864 73.0216 Q856.542 73.7508 852.775 73.7508 Q842.526 73.7508 836.49 67.3098 Q830.454 60.8689 830.454 49.9314 Q830.454 38.832 836.531 32.472 Q842.647 26.1121 853.261 26.1121 Q856.704 26.1121 859.985 26.8413 Q863.266 27.5299 866.345 28.9478 Z" fill="#000000" fill-rule="evenodd" fill-opacity="1" /><path clip-path="url(#clip030)" d="M878.538 54.671 L878.538 27.2059 L885.992 27.2059 L885.992 54.3874 Q885.992 60.8284 888.504 64.0691 Q891.015 67.2693 896.038 67.2693 Q902.074 67.2693 905.558 63.421 Q909.082 59.5726 909.082 52.9291 L909.082 27.2059 L916.536 27.2059 L916.536 72.576 L909.082 72.576 L909.082 65.6084 Q906.368 69.7404 902.763 71.7658 Q899.198 73.7508 894.458 73.7508 Q886.64 73.7508 882.589 68.8897 Q878.538 64.0286 878.538 54.671 M897.294 26.1121 L897.294 26.1121 Z" fill="#000000" fill-rule="evenodd" fill-opacity="1" /><path clip-path="url(#clip030)" d="M958.179 34.1734 Q956.923 33.4443 955.425 33.1202 Q953.966 32.7556 952.184 32.7556 Q945.864 32.7556 942.462 36.8875 Q939.099 40.9789 939.099 48.6757 L939.099 72.576 L931.605 72.576 L931.605 27.2059 L939.099 27.2059 L939.099 34.2544 Q941.449 30.1225 945.216 28.1376 Q948.984 26.1121 954.371 26.1121 Q955.141 26.1121 956.073 26.2337 Q957.004 26.3147 958.139 26.5172 L958.179 34.1734 Z" fill="#000000" fill-rule="evenodd" fill-opacity="1" /><path clip-path="url(#clip030)" d="M986.617 49.7694 Q977.583 49.7694 974.099 51.8354 Q970.615 53.9013 970.615 58.8839 Q970.615 62.8538 973.208 65.2034 Q975.841 67.5124 980.338 67.5124 Q986.535 67.5124 990.262 63.1374 Q994.03 58.7219 994.03 51.4303 L994.03 49.7694 L986.617 49.7694 M1001.48 46.6907 L1001.48 72.576 L994.03 72.576 L994.03 65.6895 Q991.478 69.8214 987.67 71.8063 Q983.862 73.7508 978.353 73.7508 Q971.385 73.7508 967.253 69.8619 Q963.162 65.9325 963.162 59.3701 Q963.162 51.7138 968.266 47.825 Q973.411 43.9361 983.578 43.9361 L994.03 43.9361 L994.03 43.2069 Q994.03 38.0623 990.627 35.2672 Q987.265 32.4315 981.148 32.4315 Q977.259 32.4315 973.573 33.3632 Q969.886 34.295 966.484 36.1584 L966.484 29.2718 Q970.575 27.692 974.423 26.9223 Q978.272 26.1121 981.917 26.1121 Q991.761 26.1121 996.622 31.2163 Q1001.48 36.3204 1001.48 46.6907 Z" fill="#000000" fill-rule="evenodd" fill-opacity="1" /><path clip-path="url(#clip030)" d="M1049.49 28.9478 L1049.49 35.9153 Q1046.33 34.1734 1043.13 33.3227 Q1039.97 32.4315 1036.73 32.4315 Q1029.48 32.4315 1025.46 37.0496 Q1021.45 41.6271 1021.45 49.9314 Q1021.45 58.2358 1025.46 62.8538 Q1029.48 67.4314 1036.73 67.4314 Q1039.97 67.4314 1043.13 66.5807 Q1046.33 65.6895 1049.49 63.9476 L1049.49 70.8341 Q1046.37 72.2924 1043.01 73.0216 Q1039.68 73.7508 1035.92 73.7508 Q1025.67 73.7508 1019.63 67.3098 Q1013.6 60.8689 1013.6 49.9314 Q1013.6 38.832 1019.67 32.472 Q1025.79 26.1121 1036.4 26.1121 Q1039.85 26.1121 1043.13 26.8413 Q1046.41 27.5299 1049.49 28.9478 Z" fill="#000000" fill-rule="evenodd" fill-opacity="1" /><path clip-path="url(#clip030)" d="M1081.33 76.7889 Q1078.17 84.8907 1075.17 87.3618 Q1072.17 89.8329 1067.15 89.8329 L1061.19 89.8329 L1061.19 83.5945 L1065.57 83.5945 Q1068.65 83.5945 1070.35 82.1361 Q1072.05 80.6778 1074.12 75.2496 L1075.45 71.8468 L1057.1 27.2059 L1065 27.2059 L1079.18 62.6918 L1093.36 27.2059 L1101.26 27.2059 L1081.33 76.7889 Z" fill="#000000" fill-rule="evenodd" fill-opacity="1" /><path clip-path="url(#clip030)" d="M1132.57 27.2059 L1140.47 27.2059 L1154.65 65.2844 L1168.83 27.2059 L1176.73 27.2059 L1159.71 72.576 L1149.58 72.576 L1132.57 27.2059 Z" fill="#000000" fill-rule="evenodd" fill-opacity="1" /><path clip-path="url(#clip030)" d="M1215.94 28.5427 L1215.94 35.5912 Q1212.78 33.9709 1209.38 33.1607 Q1205.97 32.3505 1202.33 32.3505 Q1196.78 32.3505 1193.98 34.0519 Q1191.23 35.7533 1191.23 39.156 Q1191.23 41.7486 1193.21 43.2475 Q1195.2 44.7058 1201.19 46.0426 L1203.74 46.6097 Q1211.68 48.3111 1215.01 51.4303 Q1218.37 54.509 1218.37 60.0587 Q1218.37 66.3781 1213.35 70.0644 Q1208.36 73.7508 1199.61 73.7508 Q1195.97 73.7508 1192 73.0216 Q1188.07 72.3329 1183.69 70.9151 L1183.69 63.2184 Q1187.82 65.3654 1191.84 66.4591 Q1195.85 67.5124 1199.78 67.5124 Q1205.04 67.5124 1207.88 65.73 Q1210.71 63.9071 1210.71 60.6258 Q1210.71 57.5877 1208.65 55.9673 Q1206.62 54.3469 1199.69 52.8481 L1197.1 52.2405 Q1190.17 50.7821 1187.1 47.7845 Q1184.02 44.7463 1184.02 39.4801 Q1184.02 33.0797 1188.55 29.5959 Q1193.09 26.1121 1201.44 26.1121 Q1205.57 26.1121 1209.21 26.7198 Q1212.86 27.3274 1215.94 28.5427 Z" fill="#000000" fill-rule="evenodd" fill-opacity="1" /><path clip-path="url(#clip030)" d="M1277.15 20.1573 L1266.05 50.2555 L1288.29 50.2555 L1277.15 20.1573 M1272.53 12.096 L1281.81 12.096 L1304.86 72.576 L1296.35 72.576 L1290.84 57.061 L1263.58 57.061 L1258.07 72.576 L1249.44 72.576 L1272.53 12.096 Z" fill="#000000" fill-rule="evenodd" fill-opacity="1" /><path clip-path="url(#clip030)" d="M1312.59 54.671 L1312.59 27.2059 L1320.05 27.2059 L1320.05 54.3874 Q1320.05 60.8284 1322.56 64.0691 Q1325.07 67.2693 1330.09 67.2693 Q1336.13 67.2693 1339.61 63.421 Q1343.14 59.5726 1343.14 52.9291 L1343.14 27.2059 L1350.59 27.2059 L1350.59 72.576 L1343.14 72.576 L1343.14 65.6084 Q1340.42 69.7404 1336.82 71.7658 Q1333.25 73.7508 1328.51 73.7508 Q1320.69 73.7508 1316.64 68.8897 Q1312.59 64.0286 1312.59 54.671 M1331.35 26.1121 L1331.35 26.1121 Z" fill="#000000" fill-rule="evenodd" fill-opacity="1" /><path clip-path="url(#clip030)" d="M1395.8 49.3643 Q1395.8 41.2625 1392.44 36.8065 Q1389.11 32.3505 1383.08 32.3505 Q1377.08 32.3505 1373.72 36.8065 Q1370.4 41.2625 1370.4 49.3643 Q1370.4 57.4256 1373.72 61.8816 Q1377.08 66.3376 1383.08 66.3376 Q1389.11 66.3376 1392.44 61.8816 Q1395.8 57.4256 1395.8 49.3643 M1403.25 66.9452 Q1403.25 78.5308 1398.11 84.1616 Q1392.96 89.8329 1382.35 89.8329 Q1378.42 89.8329 1374.94 89.2252 Q1371.45 88.6581 1368.17 87.4428 L1368.17 80.1917 Q1371.45 81.9741 1374.65 82.8248 Q1377.85 83.6755 1381.17 83.6755 Q1388.51 83.6755 1392.15 79.8271 Q1395.8 76.0193 1395.8 68.282 L1395.8 64.5957 Q1393.49 68.6061 1389.88 70.5911 Q1386.28 72.576 1381.26 72.576 Q1372.91 72.576 1367.81 66.2161 Q1362.7 59.8562 1362.7 49.3643 Q1362.7 38.832 1367.81 32.472 Q1372.91 26.1121 1381.26 26.1121 Q1386.28 26.1121 1389.88 28.0971 Q1393.49 30.082 1395.8 34.0924 L1395.8 27.2059 L1403.25 27.2059 L1403.25 66.9452 Z" fill="#000000" fill-rule="evenodd" fill-opacity="1" /><path clip-path="url(#clip030)" d="M1453.93 35.9153 Q1456.72 30.8922 1460.61 28.5022 Q1464.5 26.1121 1469.77 26.1121 Q1476.86 26.1121 1480.71 31.0947 Q1484.55 36.0368 1484.55 45.1919 L1484.55 72.576 L1477.06 72.576 L1477.06 45.4349 Q1477.06 38.913 1474.75 35.7533 Q1472.44 32.5936 1467.7 32.5936 Q1461.91 32.5936 1458.55 36.4419 Q1455.18 40.2903 1455.18 46.9338 L1455.18 72.576 L1447.69 72.576 L1447.69 45.4349 Q1447.69 38.8725 1445.38 35.7533 Q1443.07 32.5936 1438.25 32.5936 Q1432.54 32.5936 1429.18 36.4824 Q1425.82 40.3308 1425.82 46.9338 L1425.82 72.576 L1418.32 72.576 L1418.32 27.2059 L1425.82 27.2059 L1425.82 34.2544 Q1428.37 30.082 1431.93 28.0971 Q1435.5 26.1121 1440.4 26.1121 Q1445.34 26.1121 1448.78 28.6237 Q1452.27 31.1352 1453.93 35.9153 Z" fill="#000000" fill-rule="evenodd" fill-opacity="1" /><path clip-path="url(#clip030)" d="M1538.23 48.0275 L1538.23 51.6733 L1503.96 51.6733 Q1504.44 59.3701 1508.58 63.421 Q1512.75 67.4314 1520.16 67.4314 Q1524.46 67.4314 1528.47 66.3781 Q1532.52 65.3249 1536.49 63.2184 L1536.49 70.267 Q1532.48 71.9684 1528.26 72.8596 Q1524.05 73.7508 1519.72 73.7508 Q1508.86 73.7508 1502.5 67.4314 Q1496.18 61.1119 1496.18 50.3365 Q1496.18 39.1965 1502.18 32.6746 Q1508.21 26.1121 1518.42 26.1121 Q1527.57 26.1121 1532.88 32.0264 Q1538.23 37.9003 1538.23 48.0275 M1530.77 45.84 Q1530.69 39.7232 1527.33 36.0774 Q1524.01 32.4315 1518.5 32.4315 Q1512.26 32.4315 1508.49 35.9558 Q1504.77 39.4801 1504.2 45.8805 L1530.77 45.84 Z" fill="#000000" fill-rule="evenodd" fill-opacity="1" /><path clip-path="url(#clip030)" d="M1588.18 45.1919 L1588.18 72.576 L1580.72 72.576 L1580.72 45.4349 Q1580.72 38.994 1578.21 35.7938 Q1575.7 32.5936 1570.68 32.5936 Q1564.64 32.5936 1561.16 36.4419 Q1557.67 40.2903 1557.67 46.9338 L1557.67 72.576 L1550.18 72.576 L1550.18 27.2059 L1557.67 27.2059 L1557.67 34.2544 Q1560.35 30.163 1563.95 28.1376 Q1567.6 26.1121 1572.34 26.1121 Q1580.15 26.1121 1584.17 30.9732 Q1588.18 35.7938 1588.18 45.1919 Z" fill="#000000" fill-rule="evenodd" fill-opacity="1" /><path clip-path="url(#clip030)" d="M1610.42 14.324 L1610.42 27.2059 L1625.77 27.2059 L1625.77 32.9987 L1610.42 32.9987 L1610.42 57.6282 Q1610.42 63.1779 1611.91 64.7578 Q1613.45 66.3376 1618.11 66.3376 L1625.77 66.3376 L1625.77 72.576 L1618.11 72.576 Q1609.48 72.576 1606.2 69.3758 Q1602.92 66.1351 1602.92 57.6282 L1602.92 32.9987 L1597.45 32.9987 L1597.45 27.2059 L1602.92 27.2059 L1602.92 14.324 L1610.42 14.324 Z" fill="#000000" fill-rule="evenodd" fill-opacity="1" /><path clip-path="url(#clip030)" d="M1656.19 49.7694 Q1647.16 49.7694 1643.67 51.8354 Q1640.19 53.9013 1640.19 58.8839 Q1640.19 62.8538 1642.78 65.2034 Q1645.42 67.5124 1649.91 67.5124 Q1656.11 67.5124 1659.84 63.1374 Q1663.6 58.7219 1663.6 51.4303 L1663.6 49.7694 L1656.19 49.7694 M1671.06 46.6907 L1671.06 72.576 L1663.6 72.576 L1663.6 65.6895 Q1661.05 69.8214 1657.24 71.8063 Q1653.44 73.7508 1647.93 73.7508 Q1640.96 73.7508 1636.83 69.8619 Q1632.74 65.9325 1632.74 59.3701 Q1632.74 51.7138 1637.84 47.825 Q1642.98 43.9361 1653.15 43.9361 L1663.6 43.9361 L1663.6 43.2069 Q1663.6 38.0623 1660.2 35.2672 Q1656.84 32.4315 1650.72 32.4315 Q1646.83 32.4315 1643.15 33.3632 Q1639.46 34.295 1636.06 36.1584 L1636.06 29.2718 Q1640.15 27.692 1644 26.9223 Q1647.85 26.1121 1651.49 26.1121 Q1661.34 26.1121 1666.2 31.2163 Q1671.06 36.3204 1671.06 46.6907 Z" fill="#000000" fill-rule="evenodd" fill-opacity="1" /><path clip-path="url(#clip030)" d="M1693.78 14.324 L1693.78 27.2059 L1709.14 27.2059 L1709.14 32.9987 L1693.78 32.9987 L1693.78 57.6282 Q1693.78 63.1779 1695.28 64.7578 Q1696.82 66.3376 1701.48 66.3376 L1709.14 66.3376 L1709.14 72.576 L1701.48 72.576 Q1692.85 72.576 1689.57 69.3758 Q1686.29 66.1351 1686.29 57.6282 L1686.29 32.9987 L1680.82 32.9987 L1680.82 27.2059 L1686.29 27.2059 L1686.29 14.324 L1693.78 14.324 Z" fill="#000000" fill-rule="evenodd" fill-opacity="1" /><path clip-path="url(#clip030)" d="M1718.94 27.2059 L1726.39 27.2059 L1726.39 72.576 L1718.94 72.576 L1718.94 27.2059 M1718.94 9.54393 L1726.39 9.54393 L1726.39 18.9825 L1718.94 18.9825 L1718.94 9.54393 Z" fill="#000000" fill-rule="evenodd" fill-opacity="1" /><path clip-path="url(#clip030)" d="M1759.57 32.4315 Q1753.57 32.4315 1750.09 37.1306 Q1746.61 41.7891 1746.61 49.9314 Q1746.61 58.0738 1750.05 62.7728 Q1753.53 67.4314 1759.57 67.4314 Q1765.52 67.4314 1769.01 62.7323 Q1772.49 58.0333 1772.49 49.9314 Q1772.49 41.8701 1769.01 37.1711 Q1765.52 32.4315 1759.57 32.4315 M1759.57 26.1121 Q1769.29 26.1121 1774.84 32.4315 Q1780.39 38.7509 1780.39 49.9314 Q1780.39 61.0714 1774.84 67.4314 Q1769.29 73.7508 1759.57 73.7508 Q1749.81 73.7508 1744.26 67.4314 Q1738.75 61.0714 1738.75 49.9314 Q1738.75 38.7509 1744.26 32.4315 Q1749.81 26.1121 1759.57 26.1121 Z" fill="#000000" fill-rule="evenodd" fill-opacity="1" /><path clip-path="url(#clip030)" d="M1830.46 45.1919 L1830.46 72.576 L1823.01 72.576 L1823.01 45.4349 Q1823.01 38.994 1820.5 35.7938 Q1817.98 32.5936 1812.96 32.5936 Q1806.92 32.5936 1803.44 36.4419 Q1799.96 40.2903 1799.96 46.9338 L1799.96 72.576 L1792.46 72.576 L1792.46 27.2059 L1799.96 27.2059 L1799.96 34.2544 Q1802.63 30.163 1806.24 28.1376 Q1809.88 26.1121 1814.62 26.1121 Q1822.44 26.1121 1826.45 30.9732 Q1830.46 35.7938 1830.46 45.1919 Z" fill="#000000" fill-rule="evenodd" fill-opacity="1" /><path clip-path="url(#clip030)" d="M1874.25 28.5427 L1874.25 35.5912 Q1871.09 33.9709 1867.69 33.1607 Q1864.29 32.3505 1860.64 32.3505 Q1855.09 32.3505 1852.29 34.0519 Q1849.54 35.7533 1849.54 39.156 Q1849.54 41.7486 1851.53 43.2475 Q1853.51 44.7058 1859.51 46.0426 L1862.06 46.6097 Q1870 48.3111 1873.32 51.4303 Q1876.68 54.509 1876.68 60.0587 Q1876.68 66.3781 1871.66 70.0644 Q1866.68 73.7508 1857.93 73.7508 Q1854.28 73.7508 1850.31 73.0216 Q1846.38 72.3329 1842.01 70.9151 L1842.01 63.2184 Q1846.14 65.3654 1850.15 66.4591 Q1854.16 67.5124 1858.09 67.5124 Q1863.35 67.5124 1866.19 65.73 Q1869.02 63.9071 1869.02 60.6258 Q1869.02 57.5877 1866.96 55.9673 Q1864.93 54.3469 1858.01 52.8481 L1855.41 52.2405 Q1848.49 50.7821 1845.41 47.7845 Q1842.33 44.7463 1842.33 39.4801 Q1842.33 33.0797 1846.87 29.5959 Q1851.4 26.1121 1859.75 26.1121 Q1863.88 26.1121 1867.53 26.7198 Q1871.17 27.3274 1874.25 28.5427 Z" fill="#000000" fill-rule="evenodd" fill-opacity="1" /><circle clip-path="url(#clip032)" cx="309.067" cy="1356.35" r="14.4" fill="#0000ff" fill-rule="evenodd" fill-opacity="1" stroke="#000000" stroke-opacity="1" stroke-width="3.2"/>
<circle clip-path="url(#clip032)" cx="705.9" cy="593.839" r="14.4" fill="#0000ff" fill-rule="evenodd" fill-opacity="1" stroke="#000000" stroke-opacity="1" stroke-width="3.2"/>
<circle clip-path="url(#clip032)" cx="1102.73" cy="593.839" r="14.4" fill="#0000ff" fill-rule="evenodd" fill-opacity="1" stroke="#000000" stroke-opacity="1" stroke-width="3.2"/>
<circle clip-path="url(#clip032)" cx="1499.57" cy="309.768" r="14.4" fill="#0000ff" fill-rule="evenodd" fill-opacity="1" stroke="#000000" stroke-opacity="1" stroke-width="3.2"/>
<circle clip-path="url(#clip032)" cx="1896.4" cy="459.279" r="14.4" fill="#0000ff" fill-rule="evenodd" fill-opacity="1" stroke="#000000" stroke-opacity="1" stroke-width="3.2"/>
<circle clip-path="url(#clip032)" cx="2293.23" cy="160.256" r="14.4" fill="#0000ff" fill-rule="evenodd" fill-opacity="1" stroke="#000000" stroke-opacity="1" stroke-width="3.2"/>
<polyline clip-path="url(#clip032)" style="stroke:#008000; stroke-linecap:round; stroke-linejoin:round; stroke-width:4; stroke-opacity:1; fill:none" points="309.067,1386.4 311.051,1379.92 313.035,1373.49 315.019,1367.1 317.004,1360.75 318.988,1354.44 320.972,1348.17 322.956,1341.94 324.94,1335.75 326.924,1329.59 328.909,1323.48 330.893,1317.4 332.877,1311.36 334.861,1305.36 336.845,1299.4 338.829,1293.47 340.814,1287.59 342.798,1281.74 344.782,1275.92 346.766,1270.14 348.75,1264.4 350.734,1258.7 352.719,1253.03 354.703,1247.4 356.687,1241.8 358.671,1236.24 360.655,1230.71 362.639,1225.22 364.624,1219.77 366.608,1214.34 368.592,1208.96 370.576,1203.6 372.56,1198.29 374.544,1193 376.529,1187.75 378.513,1182.53 380.497,1177.35 382.481,1172.19 384.465,1167.07 386.449,1161.99 388.434,1156.93 390.418,1151.91 392.402,1146.92 394.386,1141.96 396.37,1137.04 398.354,1132.14 400.339,1127.28 402.323,1122.45 404.307,1117.65 406.291,1112.88 408.275,1108.14 410.259,1103.43 412.243,1098.75 414.228,1094.1 416.212,1089.48 418.196,1084.89 420.18,1080.33 422.164,1075.8 424.148,1071.3 426.133,1066.83 428.117,1062.38 430.101,1057.97 432.085,1053.58 434.069,1049.22 436.053,1044.89 438.038,1040.59 440.022,1036.31 442.006,1032.07 443.99,1027.85 445.974,1023.65 447.958,1019.49 449.943,1015.35 451.927,1011.24 453.911,1007.15 455.895,1003.09 457.879,999.062 459.863,995.056 461.848,991.076 463.832,987.122 465.816,983.193 467.8,979.29 469.784,975.412 471.768,971.559 473.753,967.732 475.737,963.929 477.721,960.151 479.705,956.397 481.689,952.668 483.673,948.964 485.658,945.283 487.642,941.626 489.626,937.993 491.61,934.384 493.594,930.798 495.578,927.236 497.563,923.697 499.547,920.181 501.531,916.688 503.515,913.218 505.499,909.77 507.483,906.345 509.468,902.943 511.452,899.562 513.436,896.204 515.42,892.868 517.404,889.553 519.388,886.261 521.373,882.989 523.357,879.74 525.341,876.511 527.325,873.304 529.309,870.118 531.293,866.952 533.277,863.808 535.262,860.684 537.246,857.58 539.23,854.497 541.214,851.434 543.198,848.391 545.182,845.369 547.167,842.366 549.151,839.383 551.135,836.419 553.119,833.475 555.103,830.55 557.087,827.645 559.072,824.759 561.056,821.892 563.04,819.043 565.024,816.214 567.008,813.403 568.992,810.61 570.977,807.836 572.961,805.081 574.945,802.343 576.929,799.624 578.913,796.922 580.897,794.238 582.882,791.573 584.866,788.924 586.85,786.293 588.834,783.68 590.818,781.084 592.802,778.505 594.787,775.943 596.771,773.398 598.755,770.87 600.739,768.358 602.723,765.863 604.707,763.385 606.692,760.923 608.676,758.478 610.66,756.048 612.644,753.635 614.628,751.238 616.612,748.857 618.597,746.491 620.581,744.141 622.565,741.807 624.549,739.488 626.533,737.185 628.517,734.897 630.502,732.624 632.486,730.366 634.47,728.123 636.454,725.895 638.438,723.682 640.422,721.484 642.407,719.3 644.391,717.131 646.375,714.976 648.359,712.835 650.343,710.709 652.327,708.597 654.311,706.499 656.296,704.415 658.28,702.345 660.264,700.288 662.248,698.246 664.232,696.217 666.216,694.201 668.201,692.199 670.185,690.21 672.169,688.235 674.153,686.272 676.137,684.323 678.121,682.387 680.106,680.463 682.09,678.553 684.074,676.655 686.058,674.77 688.042,672.898 690.026,671.038 692.011,669.19 693.995,667.355 695.979,665.532 697.963,663.721 699.947,661.923 701.931,660.136 703.916,658.361 705.9,656.598 707.884,654.847 709.868,653.108 711.852,651.38 713.836,649.664 715.821,647.959 717.805,646.266 719.789,644.584 721.773,642.914 723.757,641.254 725.741,639.606 727.726,637.969 729.71,636.342 731.694,634.727 733.678,633.122 735.662,631.528 737.646,629.945 739.631,628.373 741.615,626.811 743.599,625.259 745.583,623.718 747.567,622.187 749.551,620.667 751.536,619.156 753.52,617.656 755.504,616.166 757.488,614.686 759.472,613.216 761.456,611.755 763.441,610.305 765.425,608.864 767.409,607.433 769.393,606.012 771.377,604.6 773.361,603.197 775.345,601.804 777.33,600.421 779.314,599.046 781.298,597.681 783.282,596.325 785.266,594.979 787.251,593.641 789.235,592.312 791.219,590.992 793.203,589.681 795.187,588.379 797.171,587.086 799.155,585.801 801.14,584.525 803.124,583.258 805.108,581.999 807.092,580.749 809.076,579.507 811.06,578.273 813.045,577.048 815.029,575.831 817.013,574.622 818.997,573.421 820.981,572.229 822.965,571.044 824.95,569.868 826.934,568.699 828.918,567.538 830.902,566.385 832.886,565.24 834.87,564.103 836.855,562.973 838.839,561.851 840.823,560.736 842.807,559.629 844.791,558.529 846.775,557.437 848.76,556.352 850.744,555.275 852.728,554.205 854.712,553.142 856.696,552.086 858.68,551.037 860.665,549.996 862.649,548.961 864.633,547.934 866.617,546.913 868.601,545.899 870.585,544.892 872.57,543.892 874.554,542.899 876.538,541.912 878.522,540.932 880.506,539.959 882.49,538.992 884.475,538.032 886.459,537.078 888.443,536.131 890.427,535.19 892.411,534.256 894.395,533.327 896.38,532.405 898.364,531.49 900.348,530.58 902.332,529.677 904.316,528.78 906.3,527.889 908.284,527.004 910.269,526.124 912.253,525.251 914.237,524.384 916.221,523.523 918.205,522.667 920.189,521.817 922.174,520.973 924.158,520.135 926.142,519.302 928.126,518.475 930.11,517.654 932.094,516.838 934.079,516.028 936.063,515.223 938.047,514.424 940.031,513.63 942.015,512.841 943.999,512.058 945.984,511.28 947.968,510.507 949.952,509.74 951.936,508.978 953.92,508.221 955.904,507.469 957.889,506.722 959.873,505.98 961.857,505.243 963.841,504.512 965.825,503.785 967.809,503.063 969.794,502.346 971.778,501.634 973.762,500.927 975.746,500.224 977.73,499.527 979.714,498.834 981.699,498.145 983.683,497.462 985.667,496.783 987.651,496.108 989.635,495.439 991.619,494.774 993.604,494.113 995.588,493.457 997.572,492.805 999.556,492.157 1001.54,491.515 1003.52,490.876 1005.51,490.242 1007.49,489.612 1009.48,488.986 1011.46,488.365 1013.45,487.747 1015.43,487.134 1017.41,486.526 1019.4,485.921 1021.38,485.32 1023.37,484.724 1025.35,484.131 1027.33,483.543 1029.32,482.958 1031.3,482.378 1033.29,481.801 1035.27,481.229 1037.26,480.66 1039.24,480.095 1041.22,479.534 1043.21,478.977 1045.19,478.424 1047.18,477.874 1049.16,477.328 1051.14,476.786 1053.13,476.247 1055.11,475.712 1057.1,475.181 1059.08,474.654 1061.07,474.13 1063.05,473.609 1065.03,473.092 1067.02,472.579 1069,472.069 1070.99,471.562 1072.97,471.059 1074.95,470.56 1076.94,470.064 1078.92,469.571 1080.91,469.081 1082.89,468.595 1084.88,468.112 1086.86,467.633 1088.84,467.156 1090.83,466.683 1092.81,466.214 1094.8,465.747 1096.78,465.284 1098.76,464.823 1100.75,464.366 1102.73,463.912 1104.72,463.461 1106.7,463.013 1108.69,462.568 1110.67,462.127 1112.65,461.688 1114.64,461.252 1116.62,460.819 1118.61,460.389 1120.59,459.962 1122.57,459.538 1124.56,459.117 1126.54,458.699 1128.53,458.283 1130.51,457.87 1132.5,457.461 1134.48,457.054 1136.46,456.649 1138.45,456.248 1140.43,455.849 1142.42,455.453 1144.4,455.06 1146.38,454.669 1148.37,454.281 1150.35,453.895 1152.34,453.513 1154.32,453.132 1156.3,452.755 1158.29,452.38 1160.27,452.007 1162.26,451.638 1164.24,451.27 1166.23,450.905 1168.21,450.543 1170.19,450.183 1172.18,449.826 1174.16,449.47 1176.15,449.118 1178.13,448.768 1180.11,448.42 1182.1,448.074 1184.08,447.731 1186.07,447.39 1188.05,447.052 1190.04,446.716 1192.02,446.382 1194,446.05 1195.99,445.721 1197.97,445.394 1199.96,445.069 1201.94,444.747 1203.92,444.426 1205.91,444.108 1207.89,443.792 1209.88,443.478 1211.86,443.166 1213.85,442.857 1215.83,442.549 1217.81,442.244 1219.8,441.94 1221.78,441.639 1223.77,441.34 1225.75,441.043 1227.73,440.747 1229.72,440.454 1231.7,440.163 1233.69,439.874 1235.67,439.587 1237.66,439.301 1239.64,439.018 1241.62,438.737 1243.61,438.457 1245.59,438.18 1247.58,437.904 1249.56,437.63 1251.54,437.359 1253.53,437.089 1255.51,436.82 1257.5,436.554 1259.48,436.289 1261.47,436.027 1263.45,435.766 1265.43,435.507 1267.42,435.249 1269.4,434.993 1271.39,434.74 1273.37,434.487 1275.35,434.237 1277.34,433.988 1279.32,433.741 1281.31,433.496 1283.29,433.252 1285.28,433.01 1287.26,432.77 1289.24,432.531 1291.23,432.294 1293.21,432.058 1295.2,431.825 1297.18,431.592 1299.16,431.362 1301.15,431.132 1303.13,430.905 1305.12,430.679 1307.1,430.454 1309.09,430.232 1311.07,430.01 1313.05,429.79 1315.04,429.572 1317.02,429.355 1319.01,429.14 1320.99,428.926 1322.97,428.713 1324.96,428.502 1326.94,428.292 1328.93,428.084 1330.91,427.878 1332.9,427.672 1334.88,427.468 1336.86,427.266 1338.85,427.065 1340.83,426.865 1342.82,426.666 1344.8,426.469 1346.78,426.274 1348.77,426.079 1350.75,425.886 1352.74,425.694 1354.72,425.504 1356.71,425.315 1358.69,425.127 1360.67,424.94 1362.66,424.755 1364.64,424.571 1366.63,424.388 1368.61,424.207 1370.59,424.027 1372.58,423.848 1374.56,423.67 1376.55,423.493 1378.53,423.318 1380.52,423.144 1382.5,422.971 1384.48,422.799 1386.47,422.628 1388.45,422.459 1390.44,422.29 1392.42,422.123 1394.4,421.957 1396.39,421.792 1398.37,421.628 1400.36,421.466 1402.34,421.304 1404.33,421.144 1406.31,420.984 1408.29,420.826 1410.28,420.669 1412.26,420.513 1414.25,420.358 1416.23,420.204 1418.21,420.051 1420.2,419.899 1422.18,419.748 1424.17,419.598 1426.15,419.45 1428.14,419.302 1430.12,419.155 1432.1,419.009 1434.09,418.865 1436.07,418.721 1438.06,418.578 1440.04,418.436 1442.02,418.295 1444.01,418.155 1445.99,418.016 1447.98,417.878 1449.96,417.741 1451.95,417.605 1453.93,417.47 1455.91,417.336 1457.9,417.203 1459.88,417.07 1461.87,416.939 1463.85,416.808 1465.83,416.678 1467.82,416.549 1469.8,416.422 1471.79,416.294 1473.77,416.168 1475.76,416.043 1477.74,415.918 1479.72,415.795 1481.71,415.672 1483.69,415.55 1485.68,415.429 1487.66,415.309 1489.64,415.189 1491.63,415.07 1493.61,414.953 1495.6,414.836 1497.58,414.719 1499.57,414.604 1501.55,414.489 1503.53,414.375 1505.52,414.262 1507.5,414.15 1509.49,414.038 1511.47,413.928 1513.45,413.818 1515.44,413.708 1517.42,413.6 1519.41,413.492 1521.39,413.385 1523.38,413.279 1525.36,413.173 1527.34,413.068 1529.33,412.964 1531.31,412.86 1533.3,412.758 1535.28,412.656 1537.26,412.554 1539.25,412.454 1541.23,412.354 1543.22,412.254 1545.2,412.156 1547.19,412.058 1549.17,411.961 1551.15,411.864 1553.14,411.768 1555.12,411.673 1557.11,411.578 1559.09,411.484 1561.07,411.391 1563.06,411.298 1565.04,411.206 1567.03,411.115 1569.01,411.024 1571,410.934 1572.98,410.844 1574.96,410.755 1576.95,410.667 1578.93,410.579 1580.92,410.492 1582.9,410.406 1584.88,410.32 1586.87,410.234 1588.85,410.149 1590.84,410.065 1592.82,409.982 1594.81,409.899 1596.79,409.816 1598.77,409.734 1600.76,409.653 1602.74,409.572 1604.73,409.492 1606.71,409.412 1608.69,409.333 1610.68,409.254 1612.66,409.176 1614.65,409.099 1616.63,409.022 1618.62,408.945 1620.6,408.869 1622.58,408.794 1624.57,408.719 1626.55,408.644 1628.54,408.57 1630.52,408.497 1632.5,408.424 1634.49,408.352 1636.47,408.28 1638.46,408.208 1640.44,408.137 1642.43,408.067 1644.41,407.997 1646.39,407.928 1648.38,407.859 1650.36,407.79 1652.35,407.722 1654.33,407.654 1656.31,407.587 1658.3,407.521 1660.28,407.454 1662.27,407.389 1664.25,407.323 1666.24,407.258 1668.22,407.194 1670.2,407.13 1672.19,407.066 1674.17,407.003 1676.16,406.941 1678.14,406.878 1680.12,406.816 1682.11,406.755 1684.09,406.694 1686.08,406.633 1688.06,406.573 1690.05,406.514 1692.03,406.454 1694.01,406.395 1696,406.337 1697.98,406.279 1699.97,406.221 1701.95,406.164 1703.93,406.107 1705.92,406.05 1707.9,405.994 1709.89,405.938 1711.87,405.883 1713.86,405.828 1715.84,405.773 1717.82,405.719 1719.81,405.665 1721.79,405.611 1723.78,405.558 1725.76,405.505 1727.74,405.453 1729.73,405.401 1731.71,405.349 1733.7,405.298 1735.68,405.247 1737.67,405.196 1739.65,405.146 1741.63,405.096 1743.62,405.046 1745.6,404.997 1747.59,404.948 1749.57,404.899 1751.55,404.851 1753.54,404.803 1755.52,404.755 1757.51,404.708 1759.49,404.661 1761.48,404.614 1763.46,404.568 1765.44,404.522 1767.43,404.476 1769.41,404.431 1771.4,404.386 1773.38,404.341 1775.36,404.297 1777.35,404.252 1779.33,404.209 1781.32,404.165 1783.3,404.122 1785.29,404.079 1787.27,404.036 1789.25,403.994 1791.24,403.952 1793.22,403.91 1795.21,403.868 1797.19,403.827 1799.17,403.786 1801.16,403.745 1803.14,403.705 1805.13,403.665 1807.11,403.625 1809.09,403.585 1811.08,403.546 1813.06,403.507 1815.05,403.468 1817.03,403.43 1819.02,403.392 1821,403.354 1822.98,403.316 1824.97,403.278 1826.95,403.241 1828.94,403.204 1830.92,403.168 1832.9,403.131 1834.89,403.095 1836.87,403.059 1838.86,403.023 1840.84,402.988 1842.83,402.953 1844.81,402.918 1846.79,402.883 1848.78,402.848 1850.76,402.814 1852.75,402.78 1854.73,402.746 1856.71,402.713 1858.7,402.679 1860.68,402.646 1862.67,402.613 1864.65,402.581 1866.64,402.548 1868.62,402.516 1870.6,402.484 1872.59,402.452 1874.57,402.421 1876.56,402.39 1878.54,402.358 1880.52,402.327 1882.51,402.297 1884.49,402.266 1886.48,402.236 1888.46,402.206 1890.45,402.176 1892.43,402.146 1894.41,402.117 1896.4,402.088 1898.38,402.059 1900.37,402.03 1902.35,402.001 1904.33,401.973 1906.32,401.944 1908.3,401.916 1910.29,401.888 1912.27,401.861 1914.26,401.833 1916.24,401.806 1918.22,401.779 1920.21,401.752 1922.19,401.725 1924.18,401.699 1926.16,401.672 1928.14,401.646 1930.13,401.62 1932.11,401.594 1934.1,401.568 1936.08,401.543 1938.07,401.518 1940.05,401.492 1942.03,401.467 1944.02,401.443 1946,401.418 1947.99,401.393 1949.97,401.369 1951.95,401.345 1953.94,401.321 1955.92,401.297 1957.91,401.274 1959.89,401.25 1961.88,401.227 1963.86,401.204 1965.84,401.181 1967.83,401.158 1969.81,401.135 1971.8,401.113 1973.78,401.09 1975.76,401.068 1977.75,401.046 1979.73,401.024 1981.72,401.002 1983.7,400.981 1985.69,400.959 1987.67,400.938 1989.65,400.917 1991.64,400.895 1993.62,400.875 1995.61,400.854 1997.59,400.833 1999.57,400.813 2001.56,400.792 2003.54,400.772 2005.53,400.752 2007.51,400.732 2009.5,400.712 2011.48,400.693 2013.46,400.673 2015.45,400.654 2017.43,400.635 2019.42,400.616 2021.4,400.597 2023.38,400.578 2025.37,400.559 2027.35,400.54 2029.34,400.522 2031.32,400.504 2033.31,400.485 2035.29,400.467 2037.27,400.449 2039.26,400.432 2041.24,400.414 2043.23,400.396 2045.21,400.379 2047.19,400.361 2049.18,400.344 2051.16,400.327 2053.15,400.31 2055.13,400.293 2057.12,400.276 2059.1,400.26 2061.08,400.243 2063.07,400.227 2065.05,400.21 2067.04,400.194 2069.02,400.178 2071,400.162 2072.99,400.146 2074.97,400.13 2076.96,400.115 2078.94,400.099 2080.93,400.084 2082.91,400.068 2084.89,400.053 2086.88,400.038 2088.86,400.023 2090.85,400.008 2092.83,399.993 2094.81,399.979 2096.8,399.964 2098.78,399.949 2100.77,399.935 2102.75,399.921 2104.74,399.906 2106.72,399.892 2108.7,399.878 2110.69,399.864 2112.67,399.85 2114.66,399.837 2116.64,399.823 2118.62,399.81 2120.61,399.796 2122.59,399.783 2124.58,399.769 2126.56,399.756 2128.55,399.743 2130.53,399.73 2132.51,399.717 2134.5,399.704 2136.48,399.692 2138.47,399.679 2140.45,399.666 2142.43,399.654 2144.42,399.642 2146.4,399.629 2148.39,399.617 2150.37,399.605 2152.36,399.593 2154.34,399.581 2156.32,399.569 2158.31,399.557 2160.29,399.545 2162.28,399.534 2164.26,399.522 2166.24,399.511 2168.23,399.499 2170.21,399.488 2172.2,399.477 2174.18,399.465 2176.17,399.454 2178.15,399.443 2180.13,399.432 2182.12,399.421 2184.1,399.411 2186.09,399.4 2188.07,399.389 2190.05,399.379 2192.04,399.368 2194.02,399.358 2196.01,399.347 2197.99,399.337 2199.98,399.327 2201.96,399.317 2203.94,399.306 2205.93,399.296 2207.91,399.287 2209.9,399.277 2211.88,399.267 2213.86,399.257 2215.85,399.247 2217.83,399.238 2219.82,399.228 2221.8,399.219 2223.79,399.209 2225.77,399.2 2227.75,399.191 2229.74,399.181 2231.72,399.172 2233.71,399.163 2235.69,399.154 2237.67,399.145 2239.66,399.136 2241.64,399.127 2243.63,399.119 2245.61,399.11 2247.6,399.101 2249.58,399.093 2251.56,399.084 2253.55,399.075 2255.53,399.067 2257.52,399.059 2259.5,399.05 2261.48,399.042 2263.47,399.034 2265.45,399.026 2267.44,399.018 2269.42,399.01 2271.41,399.002 2273.39,398.994 2275.37,398.986 2277.36,398.978 2279.34,398.97 2281.33,398.962 2283.31,398.955 2285.29,398.947 2287.28,398.94 2289.26,398.932 2291.25,398.925 2293.23,398.917 "/>
<path clip-path="url(#clip030)" d="M319.649 322.316 L1131.77 322.316 L1131.77 166.796 L319.649 166.796  Z" fill="#ffffff" fill-rule="evenodd" fill-opacity="1"/>
<polyline clip-path="url(#clip030)" style="stroke:#000000; stroke-linecap:round; stroke-linejoin:round; stroke-width:4; stroke-opacity:1; fill:none" points="319.649,322.316 1131.77,322.316 1131.77,166.796 319.649,166.796 319.649,322.316 "/>
<circle clip-path="url(#clip030)" cx="413.125" cy="218.636" r="23.04" fill="#0000ff" fill-rule="evenodd" fill-opacity="1" stroke="#000000" stroke-opacity="1" stroke-width="5.12"/>
<path clip-path="url(#clip030)" d="M534.472 204.018 L534.472 208.948 Q532.111 206.749 529.425 205.661 Q526.763 204.573 523.754 204.573 Q517.828 204.573 514.68 208.208 Q511.532 211.819 511.532 218.67 Q511.532 225.499 514.68 229.133 Q517.828 232.744 523.754 232.744 Q526.763 232.744 529.425 231.656 Q532.111 230.569 534.472 228.369 L534.472 233.254 Q532.018 234.92 529.263 235.754 Q526.532 236.587 523.476 236.587 Q515.629 236.587 511.115 231.795 Q506.602 226.981 506.602 218.67 Q506.602 210.337 511.115 205.546 Q515.629 200.731 523.476 200.731 Q526.578 200.731 529.31 201.564 Q532.064 202.374 534.472 204.018 Z" fill="#000000" fill-rule="evenodd" fill-opacity="1" /><path clip-path="url(#clip030)" d="M553.291 222.883 Q548.129 222.883 546.138 224.064 Q544.148 225.244 544.148 228.092 Q544.148 230.36 545.629 231.703 Q547.134 233.022 549.703 233.022 Q553.245 233.022 555.374 230.522 Q557.527 227.999 557.527 223.832 L557.527 222.883 L553.291 222.883 M561.786 221.124 L561.786 235.916 L557.527 235.916 L557.527 231.981 Q556.069 234.342 553.893 235.476 Q551.717 236.587 548.569 236.587 Q544.587 236.587 542.226 234.365 Q539.888 232.119 539.888 228.369 Q539.888 223.994 542.805 221.772 Q545.745 219.55 551.555 219.55 L557.527 219.55 L557.527 219.133 Q557.527 216.194 555.583 214.596 Q553.661 212.976 550.166 212.976 Q547.944 212.976 545.837 213.508 Q543.731 214.041 541.787 215.106 L541.787 211.17 Q544.124 210.268 546.324 209.828 Q548.523 209.365 550.606 209.365 Q556.231 209.365 559.009 212.282 Q561.786 215.198 561.786 221.124 Z" fill="#000000" fill-rule="evenodd" fill-opacity="1" /><path clip-path="url(#clip030)" d="M570.559 199.897 L574.819 199.897 L574.819 235.916 L570.559 235.916 L570.559 199.897 Z" fill="#000000" fill-rule="evenodd" fill-opacity="1" /><path clip-path="url(#clip030)" d="M602.388 210.985 L602.388 214.967 Q600.582 213.971 598.754 213.485 Q596.948 212.976 595.096 212.976 Q590.953 212.976 588.661 215.615 Q586.37 218.231 586.37 222.976 Q586.37 227.721 588.661 230.36 Q590.953 232.976 595.096 232.976 Q596.948 232.976 598.754 232.49 Q600.582 231.981 602.388 230.985 L602.388 234.92 Q600.606 235.754 598.684 236.17 Q596.786 236.587 594.633 236.587 Q588.777 236.587 585.328 232.906 Q581.879 229.226 581.879 222.976 Q581.879 216.633 585.351 212.999 Q588.846 209.365 594.911 209.365 Q596.879 209.365 598.754 209.782 Q600.629 210.175 602.388 210.985 Z" fill="#000000" fill-rule="evenodd" fill-opacity="1" /><path clip-path="url(#clip030)" d="M609.356 225.684 L609.356 209.99 L613.615 209.99 L613.615 225.522 Q613.615 229.203 615.05 231.055 Q616.485 232.883 619.356 232.883 Q622.805 232.883 624.795 230.684 Q626.809 228.485 626.809 224.689 L626.809 209.99 L631.068 209.99 L631.068 235.916 L626.809 235.916 L626.809 231.934 Q625.258 234.295 623.198 235.453 Q621.161 236.587 618.453 236.587 Q613.985 236.587 611.67 233.809 Q609.356 231.031 609.356 225.684 M620.073 209.365 L620.073 209.365 Z" fill="#000000" fill-rule="evenodd" fill-opacity="1" /><path clip-path="url(#clip030)" d="M639.842 199.897 L644.101 199.897 L644.101 235.916 L639.842 235.916 L639.842 199.897 Z" fill="#000000" fill-rule="evenodd" fill-opacity="1" /><path clip-path="url(#clip030)" d="M664.795 222.883 Q659.633 222.883 657.642 224.064 Q655.652 225.244 655.652 228.092 Q655.652 230.36 657.133 231.703 Q658.638 233.022 661.207 233.022 Q664.749 233.022 666.878 230.522 Q669.031 227.999 669.031 223.832 L669.031 222.883 L664.795 222.883 M673.29 221.124 L673.29 235.916 L669.031 235.916 L669.031 231.981 Q667.573 234.342 665.397 235.476 Q663.221 236.587 660.073 236.587 Q656.091 236.587 653.73 234.365 Q651.392 232.119 651.392 228.369 Q651.392 223.994 654.309 221.772 Q657.249 219.55 663.059 219.55 L669.031 219.55 L669.031 219.133 Q669.031 216.194 667.087 214.596 Q665.165 212.976 661.67 212.976 Q659.448 212.976 657.341 213.508 Q655.235 214.041 653.291 215.106 L653.291 211.17 Q655.628 210.268 657.828 209.828 Q660.027 209.365 662.11 209.365 Q667.735 209.365 670.513 212.282 Q673.29 215.198 673.29 221.124 Z" fill="#000000" fill-rule="evenodd" fill-opacity="1" /><path clip-path="url(#clip030)" d="M686.276 202.629 L686.276 209.99 L695.05 209.99 L695.05 213.3 L686.276 213.3 L686.276 227.374 Q686.276 230.545 687.133 231.448 Q688.013 232.351 690.675 232.351 L695.05 232.351 L695.05 235.916 L690.675 235.916 Q685.744 235.916 683.869 234.087 Q681.994 232.235 681.994 227.374 L681.994 213.3 L678.869 213.3 L678.869 209.99 L681.994 209.99 L681.994 202.629 L686.276 202.629 Z" fill="#000000" fill-rule="evenodd" fill-opacity="1" /><path clip-path="url(#clip030)" d="M722.827 221.888 L722.827 223.971 L703.244 223.971 Q703.522 228.369 705.883 230.684 Q708.267 232.976 712.503 232.976 Q714.957 232.976 717.249 232.374 Q719.563 231.772 721.832 230.569 L721.832 234.596 Q719.54 235.568 717.133 236.078 Q714.725 236.587 712.249 236.587 Q706.045 236.587 702.411 232.976 Q698.8 229.365 698.8 223.207 Q698.8 216.842 702.225 213.115 Q705.675 209.365 711.508 209.365 Q716.739 209.365 719.772 212.745 Q722.827 216.101 722.827 221.888 M718.568 220.638 Q718.522 217.143 716.6 215.059 Q714.702 212.976 711.554 212.976 Q707.989 212.976 705.837 214.99 Q703.707 217.004 703.383 220.661 L718.568 220.638 Z" fill="#000000" fill-rule="evenodd" fill-opacity="1" /><path clip-path="url(#clip030)" d="M746.878 213.925 L746.878 199.897 L751.137 199.897 L751.137 235.916 L746.878 235.916 L746.878 232.027 Q745.535 234.342 743.475 235.476 Q741.438 236.587 738.568 236.587 Q733.869 236.587 730.906 232.837 Q727.966 229.087 727.966 222.976 Q727.966 216.865 730.906 213.115 Q733.869 209.365 738.568 209.365 Q741.438 209.365 743.475 210.499 Q745.535 211.61 746.878 213.925 M732.364 222.976 Q732.364 227.675 734.285 230.36 Q736.23 233.022 739.61 233.022 Q742.989 233.022 744.934 230.36 Q746.878 227.675 746.878 222.976 Q746.878 218.277 744.934 215.615 Q742.989 212.93 739.61 212.93 Q736.23 212.93 734.285 215.615 Q732.364 218.277 732.364 222.976 Z" fill="#000000" fill-rule="evenodd" fill-opacity="1" /><path clip-path="url(#clip030)" d="M786.716 205.962 L780.373 223.161 L793.081 223.161 L786.716 205.962 M784.077 201.356 L789.378 201.356 L802.549 235.916 L797.688 235.916 L794.54 227.05 L778.961 227.05 L775.813 235.916 L770.882 235.916 L784.077 201.356 Z" fill="#000000" fill-rule="evenodd" fill-opacity="1" /><path clip-path="url(#clip030)" d="M825.234 210.985 L825.234 214.967 Q823.429 213.971 821.6 213.485 Q819.794 212.976 817.942 212.976 Q813.799 212.976 811.507 215.615 Q809.216 218.231 809.216 222.976 Q809.216 227.721 811.507 230.36 Q813.799 232.976 817.942 232.976 Q819.794 232.976 821.6 232.49 Q823.429 231.981 825.234 230.985 L825.234 234.92 Q823.452 235.754 821.53 236.17 Q819.632 236.587 817.479 236.587 Q811.623 236.587 808.174 232.906 Q804.725 229.226 804.725 222.976 Q804.725 216.633 808.197 212.999 Q811.692 209.365 817.757 209.365 Q819.725 209.365 821.6 209.782 Q823.475 210.175 825.234 210.985 Z" fill="#000000" fill-rule="evenodd" fill-opacity="1" /><path clip-path="url(#clip030)" d="M851.299 210.985 L851.299 214.967 Q849.493 213.971 847.664 213.485 Q845.859 212.976 844.007 212.976 Q839.864 212.976 837.572 215.615 Q835.28 218.231 835.28 222.976 Q835.28 227.721 837.572 230.36 Q839.864 232.976 844.007 232.976 Q845.859 232.976 847.664 232.49 Q849.493 231.981 851.299 230.985 L851.299 234.92 Q849.516 235.754 847.595 236.17 Q845.697 236.587 843.544 236.587 Q837.688 236.587 834.239 232.906 Q830.79 229.226 830.79 222.976 Q830.79 216.633 834.262 212.999 Q837.757 209.365 843.822 209.365 Q845.79 209.365 847.664 209.782 Q849.539 210.175 851.299 210.985 Z" fill="#000000" fill-rule="evenodd" fill-opacity="1" /><path clip-path="url(#clip030)" d="M858.266 225.684 L858.266 209.99 L862.526 209.99 L862.526 225.522 Q862.526 229.203 863.961 231.055 Q865.396 232.883 868.266 232.883 Q871.715 232.883 873.706 230.684 Q875.72 228.485 875.72 224.689 L875.72 209.99 L879.979 209.99 L879.979 235.916 L875.72 235.916 L875.72 231.934 Q874.169 234.295 872.109 235.453 Q870.072 236.587 867.363 236.587 Q862.896 236.587 860.581 233.809 Q858.266 231.031 858.266 225.684 M868.984 209.365 L868.984 209.365 Z" fill="#000000" fill-rule="evenodd" fill-opacity="1" /><path clip-path="url(#clip030)" d="M903.775 213.971 Q903.058 213.555 902.201 213.37 Q901.368 213.161 900.349 213.161 Q896.738 213.161 894.794 215.522 Q892.873 217.86 892.873 222.258 L892.873 235.916 L888.59 235.916 L888.59 209.99 L892.873 209.99 L892.873 214.018 Q894.215 211.657 896.368 210.522 Q898.521 209.365 901.599 209.365 Q902.039 209.365 902.572 209.434 Q903.104 209.481 903.752 209.596 L903.775 213.971 Z" fill="#000000" fill-rule="evenodd" fill-opacity="1" /><path clip-path="url(#clip030)" d="M920.025 222.883 Q914.863 222.883 912.872 224.064 Q910.882 225.244 910.882 228.092 Q910.882 230.36 912.363 231.703 Q913.868 233.022 916.437 233.022 Q919.979 233.022 922.109 230.522 Q924.261 227.999 924.261 223.832 L924.261 222.883 L920.025 222.883 M928.521 221.124 L928.521 235.916 L924.261 235.916 L924.261 231.981 Q922.803 234.342 920.627 235.476 Q918.451 236.587 915.303 236.587 Q911.322 236.587 908.96 234.365 Q906.623 232.119 906.623 228.369 Q906.623 223.994 909.539 221.772 Q912.479 219.55 918.289 219.55 L924.261 219.55 L924.261 219.133 Q924.261 216.194 922.317 214.596 Q920.396 212.976 916.9 212.976 Q914.678 212.976 912.572 213.508 Q910.465 214.041 908.521 215.106 L908.521 211.17 Q910.859 210.268 913.058 209.828 Q915.257 209.365 917.34 209.365 Q922.965 209.365 925.743 212.282 Q928.521 215.198 928.521 221.124 Z" fill="#000000" fill-rule="evenodd" fill-opacity="1" /><path clip-path="url(#clip030)" d="M955.951 210.985 L955.951 214.967 Q954.145 213.971 952.317 213.485 Q950.511 212.976 948.659 212.976 Q944.516 212.976 942.224 215.615 Q939.933 218.231 939.933 222.976 Q939.933 227.721 942.224 230.36 Q944.516 232.976 948.659 232.976 Q950.511 232.976 952.317 232.49 Q954.145 231.981 955.951 230.985 L955.951 234.92 Q954.169 235.754 952.247 236.17 Q950.349 236.587 948.196 236.587 Q942.34 236.587 938.891 232.906 Q935.442 229.226 935.442 222.976 Q935.442 216.633 938.914 212.999 Q942.409 209.365 948.474 209.365 Q950.442 209.365 952.317 209.782 Q954.192 210.175 955.951 210.985 Z" fill="#000000" fill-rule="evenodd" fill-opacity="1" /><path clip-path="url(#clip030)" d="M974.145 238.323 Q972.34 242.953 970.627 244.365 Q968.914 245.777 966.043 245.777 L962.641 245.777 L962.641 242.212 L965.141 242.212 Q966.9 242.212 967.872 241.379 Q968.844 240.545 970.025 237.443 L970.789 235.499 L960.303 209.99 L964.817 209.99 L972.918 230.268 L981.02 209.99 L985.534 209.99 L974.145 238.323 Z" fill="#000000" fill-rule="evenodd" fill-opacity="1" /><polyline clip-path="url(#clip030)" style="stroke:#008000; stroke-linecap:round; stroke-linejoin:round; stroke-width:4; stroke-opacity:1; fill:none" points="343.018,270.476 483.232,270.476 "/>
<path clip-path="url(#clip030)" d="M511.277 257.038 L511.277 270.024 L517.157 270.024 Q520.421 270.024 522.203 268.335 Q523.986 266.645 523.986 263.52 Q523.986 260.418 522.203 258.728 Q520.421 257.038 517.157 257.038 L511.277 257.038 M506.602 253.196 L517.157 253.196 Q522.967 253.196 525.93 255.835 Q528.916 258.45 528.916 263.52 Q528.916 268.635 525.93 271.251 Q522.967 273.867 517.157 273.867 L511.277 273.867 L511.277 287.756 L506.602 287.756 L506.602 253.196 Z" fill="#000000" fill-rule="evenodd" fill-opacity="1" /><path clip-path="url(#clip030)" d="M549.194 265.811 Q548.476 265.395 547.62 265.21 Q546.786 265.001 545.768 265.001 Q542.157 265.001 540.212 267.362 Q538.291 269.7 538.291 274.098 L538.291 287.756 L534.009 287.756 L534.009 261.83 L538.291 261.83 L538.291 265.858 Q539.634 263.497 541.787 262.362 Q543.939 261.205 547.018 261.205 Q547.458 261.205 547.99 261.274 Q548.523 261.321 549.171 261.436 L549.194 265.811 Z" fill="#000000" fill-rule="evenodd" fill-opacity="1" /><path clip-path="url(#clip030)" d="M574.796 273.728 L574.796 275.811 L555.212 275.811 Q555.49 280.209 557.851 282.524 Q560.235 284.816 564.472 284.816 Q566.925 284.816 569.217 284.214 Q571.532 283.612 573.8 282.409 L573.8 286.436 Q571.509 287.408 569.101 287.918 Q566.694 288.427 564.217 288.427 Q558.013 288.427 554.379 284.816 Q550.768 281.205 550.768 275.047 Q550.768 268.682 554.194 264.955 Q557.643 261.205 563.476 261.205 Q568.708 261.205 571.74 264.585 Q574.796 267.941 574.796 273.728 M570.536 272.478 Q570.49 268.983 568.569 266.899 Q566.671 264.816 563.522 264.816 Q559.958 264.816 557.805 266.83 Q555.675 268.844 555.351 272.501 L570.536 272.478 Z" fill="#000000" fill-rule="evenodd" fill-opacity="1" /><path clip-path="url(#clip030)" d="M598.846 265.765 L598.846 251.737 L603.106 251.737 L603.106 287.756 L598.846 287.756 L598.846 283.867 Q597.504 286.182 595.444 287.316 Q593.407 288.427 590.536 288.427 Q585.837 288.427 582.874 284.677 Q579.934 280.927 579.934 274.816 Q579.934 268.705 582.874 264.955 Q585.837 261.205 590.536 261.205 Q593.407 261.205 595.444 262.339 Q597.504 263.45 598.846 265.765 M584.333 274.816 Q584.333 279.515 586.254 282.2 Q588.198 284.862 591.578 284.862 Q594.958 284.862 596.902 282.2 Q598.846 279.515 598.846 274.816 Q598.846 270.117 596.902 267.455 Q594.958 264.77 591.578 264.77 Q588.198 264.77 586.254 267.455 Q584.333 270.117 584.333 274.816 Z" fill="#000000" fill-rule="evenodd" fill-opacity="1" /><path clip-path="url(#clip030)" d="M611.879 261.83 L616.138 261.83 L616.138 287.756 L611.879 287.756 L611.879 261.83 M611.879 251.737 L616.138 251.737 L616.138 257.131 L611.879 257.131 L611.879 251.737 Z" fill="#000000" fill-rule="evenodd" fill-opacity="1" /><path clip-path="url(#clip030)" d="M643.707 262.825 L643.707 266.807 Q641.902 265.811 640.073 265.325 Q638.267 264.816 636.416 264.816 Q632.272 264.816 629.98 267.455 Q627.689 270.071 627.689 274.816 Q627.689 279.561 629.98 282.2 Q632.272 284.816 636.416 284.816 Q638.267 284.816 640.073 284.33 Q641.902 283.821 643.707 282.825 L643.707 286.76 Q641.925 287.594 640.004 288.01 Q638.105 288.427 635.953 288.427 Q630.096 288.427 626.647 284.746 Q623.198 281.066 623.198 274.816 Q623.198 268.473 626.67 264.839 Q630.166 261.205 636.23 261.205 Q638.198 261.205 640.073 261.622 Q641.948 262.015 643.707 262.825 Z" fill="#000000" fill-rule="evenodd" fill-opacity="1" /><path clip-path="url(#clip030)" d="M655.328 254.469 L655.328 261.83 L664.101 261.83 L664.101 265.14 L655.328 265.14 L655.328 279.214 Q655.328 282.385 656.184 283.288 Q657.064 284.191 659.726 284.191 L664.101 284.191 L664.101 287.756 L659.726 287.756 Q654.795 287.756 652.92 285.927 Q651.045 284.075 651.045 279.214 L651.045 265.14 L647.92 265.14 L647.92 261.83 L651.045 261.83 L651.045 254.469 L655.328 254.469 Z" fill="#000000" fill-rule="evenodd" fill-opacity="1" /><path clip-path="url(#clip030)" d="M691.878 273.728 L691.878 275.811 L672.295 275.811 Q672.573 280.209 674.934 282.524 Q677.318 284.816 681.554 284.816 Q684.008 284.816 686.3 284.214 Q688.614 283.612 690.883 282.409 L690.883 286.436 Q688.591 287.408 686.184 287.918 Q683.776 288.427 681.3 288.427 Q675.096 288.427 671.462 284.816 Q667.851 281.205 667.851 275.047 Q667.851 268.682 671.277 264.955 Q674.726 261.205 680.559 261.205 Q685.79 261.205 688.823 264.585 Q691.878 267.941 691.878 273.728 M687.619 272.478 Q687.573 268.983 685.651 266.899 Q683.753 264.816 680.605 264.816 Q677.04 264.816 674.888 266.83 Q672.758 268.844 672.434 272.501 L687.619 272.478 Z" fill="#000000" fill-rule="evenodd" fill-opacity="1" /><path clip-path="url(#clip030)" d="M715.929 265.765 L715.929 251.737 L720.188 251.737 L720.188 287.756 L715.929 287.756 L715.929 283.867 Q714.587 286.182 712.526 287.316 Q710.489 288.427 707.619 288.427 Q702.92 288.427 699.957 284.677 Q697.017 280.927 697.017 274.816 Q697.017 268.705 699.957 264.955 Q702.92 261.205 707.619 261.205 Q710.489 261.205 712.526 262.339 Q714.587 263.45 715.929 265.765 M701.415 274.816 Q701.415 279.515 703.337 282.2 Q705.281 284.862 708.661 284.862 Q712.04 284.862 713.985 282.2 Q715.929 279.515 715.929 274.816 Q715.929 270.117 713.985 267.455 Q712.04 264.77 708.661 264.77 Q705.281 264.77 703.337 267.455 Q701.415 270.117 701.415 274.816 Z" fill="#000000" fill-rule="evenodd" fill-opacity="1" /><path clip-path="url(#clip030)" d="M755.767 257.802 L749.424 275.001 L762.133 275.001 L755.767 257.802 M753.128 253.196 L758.429 253.196 L771.6 287.756 L766.739 287.756 L763.591 278.89 L748.012 278.89 L744.864 287.756 L739.934 287.756 L753.128 253.196 Z" fill="#000000" fill-rule="evenodd" fill-opacity="1" /><path clip-path="url(#clip030)" d="M794.285 262.825 L794.285 266.807 Q792.48 265.811 790.651 265.325 Q788.845 264.816 786.994 264.816 Q782.85 264.816 780.558 267.455 Q778.267 270.071 778.267 274.816 Q778.267 279.561 780.558 282.2 Q782.85 284.816 786.994 284.816 Q788.845 284.816 790.651 284.33 Q792.48 283.821 794.285 282.825 L794.285 286.76 Q792.503 287.594 790.581 288.01 Q788.683 288.427 786.531 288.427 Q780.674 288.427 777.225 284.746 Q773.776 281.066 773.776 274.816 Q773.776 268.473 777.248 264.839 Q780.744 261.205 786.808 261.205 Q788.776 261.205 790.651 261.622 Q792.526 262.015 794.285 262.825 Z" fill="#000000" fill-rule="evenodd" fill-opacity="1" /><path clip-path="url(#clip030)" d="M820.35 262.825 L820.35 266.807 Q818.544 265.811 816.716 265.325 Q814.91 264.816 813.058 264.816 Q808.915 264.816 806.623 267.455 Q804.331 270.071 804.331 274.816 Q804.331 279.561 806.623 282.2 Q808.915 284.816 813.058 284.816 Q814.91 284.816 816.716 284.33 Q818.544 283.821 820.35 282.825 L820.35 286.76 Q818.567 287.594 816.646 288.01 Q814.748 288.427 812.595 288.427 Q806.739 288.427 803.29 284.746 Q799.841 281.066 799.841 274.816 Q799.841 268.473 803.313 264.839 Q806.808 261.205 812.873 261.205 Q814.841 261.205 816.716 261.622 Q818.591 262.015 820.35 262.825 Z" fill="#000000" fill-rule="evenodd" fill-opacity="1" /><path clip-path="url(#clip030)" d="M827.317 277.524 L827.317 261.83 L831.577 261.83 L831.577 277.362 Q831.577 281.043 833.012 282.895 Q834.447 284.723 837.317 284.723 Q840.766 284.723 842.757 282.524 Q844.771 280.325 844.771 276.529 L844.771 261.83 L849.03 261.83 L849.03 287.756 L844.771 287.756 L844.771 283.774 Q843.22 286.135 841.16 287.293 Q839.123 288.427 836.415 288.427 Q831.947 288.427 829.632 285.649 Q827.317 282.871 827.317 277.524 M838.035 261.205 L838.035 261.205 Z" fill="#000000" fill-rule="evenodd" fill-opacity="1" /><path clip-path="url(#clip030)" d="M872.826 265.811 Q872.109 265.395 871.252 265.21 Q870.419 265.001 869.4 265.001 Q865.789 265.001 863.845 267.362 Q861.924 269.7 861.924 274.098 L861.924 287.756 L857.641 287.756 L857.641 261.83 L861.924 261.83 L861.924 265.858 Q863.266 263.497 865.419 262.362 Q867.572 261.205 870.65 261.205 Q871.09 261.205 871.623 261.274 Q872.155 261.321 872.803 261.436 L872.826 265.811 Z" fill="#000000" fill-rule="evenodd" fill-opacity="1" /><path clip-path="url(#clip030)" d="M889.076 274.723 Q883.914 274.723 881.924 275.904 Q879.933 277.084 879.933 279.932 Q879.933 282.2 881.414 283.543 Q882.919 284.862 885.488 284.862 Q889.03 284.862 891.16 282.362 Q893.312 279.839 893.312 275.672 L893.312 274.723 L889.076 274.723 M897.572 272.964 L897.572 287.756 L893.312 287.756 L893.312 283.821 Q891.854 286.182 889.678 287.316 Q887.502 288.427 884.354 288.427 Q880.373 288.427 878.012 286.205 Q875.674 283.959 875.674 280.209 Q875.674 275.834 878.59 273.612 Q881.53 271.39 887.34 271.39 L893.312 271.39 L893.312 270.973 Q893.312 268.034 891.368 266.436 Q889.447 264.816 885.951 264.816 Q883.729 264.816 881.623 265.348 Q879.516 265.881 877.572 266.946 L877.572 263.01 Q879.91 262.108 882.109 261.668 Q884.308 261.205 886.391 261.205 Q892.016 261.205 894.794 264.122 Q897.572 267.038 897.572 272.964 Z" fill="#000000" fill-rule="evenodd" fill-opacity="1" /><path clip-path="url(#clip030)" d="M925.002 262.825 L925.002 266.807 Q923.196 265.811 921.368 265.325 Q919.562 264.816 917.71 264.816 Q913.567 264.816 911.275 267.455 Q908.984 270.071 908.984 274.816 Q908.984 279.561 911.275 282.2 Q913.567 284.816 917.71 284.816 Q919.562 284.816 921.368 284.33 Q923.196 283.821 925.002 282.825 L925.002 286.76 Q923.22 287.594 921.298 288.01 Q919.4 288.427 917.247 288.427 Q911.391 288.427 907.942 284.746 Q904.493 281.066 904.493 274.816 Q904.493 268.473 907.965 264.839 Q911.46 261.205 917.525 261.205 Q919.493 261.205 921.368 261.622 Q923.243 262.015 925.002 262.825 Z" fill="#000000" fill-rule="evenodd" fill-opacity="1" /><path clip-path="url(#clip030)" d="M943.196 290.163 Q941.391 294.793 939.678 296.205 Q937.965 297.617 935.095 297.617 L931.692 297.617 L931.692 294.052 L934.192 294.052 Q935.951 294.052 936.923 293.219 Q937.895 292.385 939.076 289.283 L939.84 287.339 L929.354 261.83 L933.868 261.83 L941.97 282.108 L950.071 261.83 L954.585 261.83 L943.196 290.163 Z" fill="#000000" fill-rule="evenodd" fill-opacity="1" /><path clip-path="url(#clip030)" d="M1001.6 255.858 L1001.6 260.788 Q999.238 258.589 996.553 257.501 Q993.891 256.413 990.881 256.413 Q984.955 256.413 981.807 260.048 Q978.659 263.659 978.659 270.51 Q978.659 277.339 981.807 280.973 Q984.955 284.584 990.881 284.584 Q993.891 284.584 996.553 283.496 Q999.238 282.409 1001.6 280.209 L1001.6 285.094 Q999.145 286.76 996.391 287.594 Q993.659 288.427 990.604 288.427 Q982.756 288.427 978.242 283.635 Q973.729 278.821 973.729 270.51 Q973.729 262.177 978.242 257.386 Q982.756 252.571 990.604 252.571 Q993.705 252.571 996.437 253.404 Q999.191 254.214 1001.6 255.858 Z" fill="#000000" fill-rule="evenodd" fill-opacity="1" /><path clip-path="url(#clip030)" d="M1008.2 277.524 L1008.2 261.83 L1012.46 261.83 L1012.46 277.362 Q1012.46 281.043 1013.89 282.895 Q1015.33 284.723 1018.2 284.723 Q1021.65 284.723 1023.64 282.524 Q1025.65 280.325 1025.65 276.529 L1025.65 261.83 L1029.91 261.83 L1029.91 287.756 L1025.65 287.756 L1025.65 283.774 Q1024.1 286.135 1022.04 287.293 Q1020 288.427 1017.29 288.427 Q1012.83 288.427 1010.51 285.649 Q1008.2 282.871 1008.2 277.524 M1018.91 261.205 L1018.91 261.205 Z" fill="#000000" fill-rule="evenodd" fill-opacity="1" /><path clip-path="url(#clip030)" d="M1053.71 265.811 Q1052.99 265.395 1052.13 265.21 Q1051.3 265.001 1050.28 265.001 Q1046.67 265.001 1044.72 267.362 Q1042.8 269.7 1042.8 274.098 L1042.8 287.756 L1038.52 287.756 L1038.52 261.83 L1042.8 261.83 L1042.8 265.858 Q1044.14 263.497 1046.3 262.362 Q1048.45 261.205 1051.53 261.205 Q1051.97 261.205 1052.5 261.274 Q1053.03 261.321 1053.68 261.436 L1053.71 265.811 Z" fill="#000000" fill-rule="evenodd" fill-opacity="1" /><path clip-path="url(#clip030)" d="M1055.12 261.83 L1059.63 261.83 L1067.73 283.589 L1075.83 261.83 L1080.35 261.83 L1070.63 287.756 L1064.84 287.756 L1055.12 261.83 Z" fill="#000000" fill-rule="evenodd" fill-opacity="1" /><path clip-path="url(#clip030)" d="M1108.4 273.728 L1108.4 275.811 L1088.82 275.811 Q1089.1 280.209 1091.46 282.524 Q1093.84 284.816 1098.08 284.816 Q1100.53 284.816 1102.83 284.214 Q1105.14 283.612 1107.41 282.409 L1107.41 286.436 Q1105.12 287.408 1102.71 287.918 Q1100.3 288.427 1097.83 288.427 Q1091.62 288.427 1087.99 284.816 Q1084.38 281.205 1084.38 275.047 Q1084.38 268.682 1087.8 264.955 Q1091.25 261.205 1097.08 261.205 Q1102.32 261.205 1105.35 264.585 Q1108.4 267.941 1108.4 273.728 M1104.14 272.478 Q1104.1 268.983 1102.18 266.899 Q1100.28 264.816 1097.13 264.816 Q1093.57 264.816 1091.41 266.83 Q1089.28 268.844 1088.96 272.501 L1104.14 272.478 Z" fill="#000000" fill-rule="evenodd" fill-opacity="1" /></svg>
